<svg width="23" height="23" viewBox="0 0 23 23" fill="none" xmlns="http://www.w3.org/2000/svg">
<path d="M18.3124 11.9066C18.2176 11.9066 18.1348 11.8802 18.1072 11.7722C18.0987 11.7476 18.0841 11.7257 18.0648 11.7083C18.0455 11.6909 18.0221 11.6786 17.9968 11.6726C17.8971 11.6374 17.7918 11.6203 17.686 11.6222C17.484 11.609 17.2812 11.6138 17.08 11.6366C16.9996 11.6498 16.7656 11.6522 16.6816 11.5382C16.55 11.3526 16.4708 11.135 16.4524 10.9082C16.348 9.98658 16.0012 9.37338 15.6784 8.66058C15.6679 8.63168 15.648 8.60712 15.6219 8.59081C15.5958 8.5745 15.565 8.56738 15.5344 8.57058L14.2828 8.62458C14.1736 8.64378 14.068 8.56218 14.17 8.43378C14.2888 8.26225 14.3982 8.08438 14.4976 7.90098C14.6692 7.63098 14.704 7.64778 14.9872 7.67538C15.2667 7.70522 15.5487 7.70119 15.8272 7.66338C15.8992 7.65258 15.9292 7.61658 15.9004 7.54338C15.8863 7.50868 15.8762 7.47243 15.8704 7.43538C15.8548 7.31538 15.8848 7.28178 16.006 7.27698C16.1579 7.2546 16.3065 7.21432 16.4488 7.15698C16.7949 7.07332 17.1321 6.95638 17.4556 6.80778C17.5108 6.78018 17.5612 6.74298 17.6176 6.71898C17.7172 6.67698 17.7748 6.71898 17.7844 6.82338C17.7976 6.96618 17.8084 6.97578 17.9536 6.97218C19.0672 6.94698 18.5812 6.98058 19.264 6.83898C19.864 6.71898 20.1772 7.05138 20.3344 7.64658C20.5108 8.31378 20.5336 10.9274 19.6744 11.7818C19.62 11.8364 19.5463 11.8674 19.4692 11.8682C19.1692 11.8574 19.1692 11.927 18.3124 11.9066Z" fill="#FEF0BB"/>
<path d="M18.4517 6.39618C18.323 6.45957 18.175 6.47165 18.0377 6.42998C17.9005 6.38831 17.7842 6.29601 17.7125 6.17178C17.603 5.97867 17.5489 5.75912 17.5561 5.53725C17.5633 5.31538 17.6315 5.09979 17.7533 4.91418C17.9477 4.60458 18.1133 4.57938 18.4481 4.76538C19.0217 5.08218 19.0829 6.08538 18.4517 6.39618Z" fill="#FEF0BB"/>
<path d="M17.2288 12.6422C17.4689 12.6637 17.7106 12.656 17.9488 12.6194C18.0237 12.6159 18.0975 12.6001 18.1672 12.5726C18.2428 12.533 18.3136 12.5954 18.2992 12.6818C18.2828 12.7759 18.2604 12.8689 18.232 12.9602C18.1912 13.0982 17.872 13.0802 17.7292 13.0598C17.3986 13.0392 17.0707 12.9869 16.75 12.9038C16.377 12.8042 15.9925 12.7542 15.6064 12.755C15.514 12.755 14.86 12.8042 14.7808 12.8678C14.7738 12.8742 14.7655 12.8791 14.7564 12.8821C14.7474 12.8851 14.7378 12.8862 14.7283 12.8853C14.7188 12.8844 14.7096 12.8815 14.7013 12.8768C14.693 12.8722 14.6857 12.8658 14.68 12.8582C14.6476 12.827 14.6668 12.7934 14.68 12.7646C14.8828 12.4502 16.8028 12.6134 17.2288 12.6422Z" fill="#FEF0BB"/>
<path d="M16.9433 1.26498C16.9289 1.18458 16.9121 1.10418 16.9037 1.02498C16.9037 0.970983 16.8761 0.954183 16.8257 0.957783C16.7468 0.957428 16.6686 0.942371 16.5953 0.913383C16.4453 0.867783 16.5065 0.733383 16.6457 0.690183C16.8857 0.616983 16.8641 0.404583 16.8989 0.222183C16.9085 0.171783 16.9085 0.114183 16.9709 0.102183C17.0333 0.0901827 17.0621 0.142983 17.0909 0.190983C17.2649 0.494583 17.5589 0.352983 17.6585 0.346983C17.7581 0.340983 17.7869 0.422583 17.7425 0.478983C17.6946 0.545574 17.6433 0.609659 17.5889 0.670983C17.568 0.688396 17.5537 0.712353 17.5483 0.738943C17.5428 0.765532 17.5466 0.793184 17.5589 0.817383C17.5913 0.89666 17.6155 0.979105 17.6309 1.06338C17.6537 1.18338 17.5961 1.25058 17.4713 1.17018C17.4217 1.13898 17.3737 1.10658 17.3273 1.07298C17.2853 1.04298 17.2577 1.04418 17.2325 1.09698C17.1941 1.17738 17.1485 1.25298 17.1053 1.33698C17.0513 1.42218 16.9661 1.39338 16.9433 1.26498ZM17.0633 1.10418C17.1473 1.03458 17.1341 0.922983 17.2265 0.896583C17.3189 0.870183 17.3741 0.949383 17.4821 0.980583C17.3765 0.798183 17.3765 0.644583 17.5385 0.506583C17.3309 0.555783 17.1581 0.530583 17.0333 0.338583C17.0258 0.437889 16.993 0.533616 16.9379 0.616606C16.8829 0.699597 16.8074 0.767074 16.7189 0.812583C16.9697 0.748983 17.0621 0.867783 17.0585 1.10418H17.0633Z" fill="#FEF0BB"/>
<path d="M19.8844 12.9398C19.8784 13.067 19.6924 13.2242 19.5604 13.2458C19.4009 13.2623 19.2397 13.2426 19.0888 13.1882C19.0725 13.1859 19.0569 13.1798 19.0433 13.1705C19.0297 13.1611 19.0185 13.1488 19.0105 13.1344C19.0024 13.1199 18.9979 13.1039 18.9971 13.0874C18.9963 13.0709 18.9994 13.0545 19.006 13.0394C19.0516 12.893 19.1332 12.7598 19.1764 12.611C19.1992 12.5294 19.402 12.611 19.5724 12.5366C19.5885 12.5298 19.6063 12.5277 19.6235 12.5307C19.6407 12.5337 19.6568 12.5416 19.6696 12.5534C19.7956 12.6602 19.8292 12.8174 19.8844 12.9398Z" fill="#FEF0BB"/>
<path d="M16.1824 15.2306C16.1816 15.1238 16.2214 15.0207 16.2938 14.9422C16.3663 14.8637 16.4659 14.8158 16.5724 14.8082C16.6194 14.8111 16.6652 14.8242 16.7065 14.8467C16.7479 14.8692 16.7837 14.9005 16.8117 14.9384C16.8396 14.9762 16.8589 15.0198 16.8681 15.0659C16.8774 15.1121 16.8764 15.1597 16.8652 15.2054C16.8455 15.2999 16.7993 15.3869 16.732 15.4562C16.6936 15.5025 16.6425 15.5368 16.5851 15.5549C16.5276 15.573 16.4661 15.5741 16.408 15.5582C16.3424 15.5318 16.286 15.4866 16.2459 15.4284C16.2058 15.3701 16.1837 15.3013 16.1824 15.2306Z" fill="#FEF0BB"/>
<path d="M14.8757 20.5358C14.7269 20.4482 14.7556 19.8554 15.154 19.835C15.2351 19.8384 15.3117 19.8733 15.3674 19.9322C15.4232 19.9911 15.4539 20.0695 15.4529 20.1506C15.4469 20.4746 15.1841 20.717 14.8757 20.5358Z" fill="#FEF0BB"/>
<path d="M14.3044 18.551C14.3044 18.7826 14.1844 18.965 14.0392 18.965C13.9434 18.9625 13.8516 18.9263 13.78 18.8626C13.7084 18.7989 13.6616 18.7119 13.648 18.617C13.6479 18.522 13.6844 18.4306 13.7499 18.3618C13.8153 18.293 13.9048 18.252 13.9996 18.2474C14.04 18.2459 14.0802 18.2527 14.1178 18.2674C14.1553 18.2821 14.1895 18.3044 14.2181 18.3329C14.2467 18.3614 14.2691 18.3954 14.284 18.4329C14.2988 18.4705 14.3058 18.5106 14.3044 18.551Z" fill="#FEF0BB"/>
<path d="M17.4749 13.8902C17.4749 14.0798 17.3693 14.1746 17.1797 14.1938C17.1105 14.2075 17.0388 14.1996 16.9744 14.171C16.9099 14.1424 16.8559 14.0946 16.8197 14.0342C16.6925 13.8278 16.8065 13.697 17.0261 13.5974C17.0741 13.5695 17.129 13.5555 17.1845 13.5569C17.2401 13.5583 17.2941 13.5752 17.3406 13.6056C17.3872 13.6359 17.4244 13.6786 17.4481 13.7289C17.4718 13.7791 17.481 13.835 17.4749 13.8902Z" fill="#FEF0BB"/>
<path d="M15.3976 18.5306C15.4024 18.6218 15.3745 18.7117 15.3188 18.7841C15.2631 18.8565 15.1834 18.9066 15.094 18.9254C15.0257 18.9298 14.9574 18.9153 14.8968 18.8833C14.8363 18.8513 14.7857 18.8031 14.7508 18.7442C14.6236 18.5042 15.0028 18.1214 15.2404 18.2642C15.2888 18.2896 15.3291 18.328 15.3569 18.375C15.3847 18.4221 15.3988 18.476 15.3976 18.5306Z" fill="#FEF0BB"/>
<path d="M13.0708 19.1474C13.0708 19.355 12.922 19.5434 12.7588 19.5434C12.5956 19.5434 12.4456 19.3694 12.4348 19.1834C12.4393 19.0953 12.4767 19.0122 12.5396 18.9504C12.6025 18.8886 12.6863 18.8527 12.7744 18.8498C12.8136 18.8493 12.8525 18.8567 12.8887 18.8715C12.925 18.8863 12.9579 18.9082 12.9855 18.9359C13.0132 18.9637 13.035 18.9967 13.0496 19.033C13.0643 19.0693 13.0715 19.1082 13.0708 19.1474Z" fill="#FEF0BB"/>
<path d="M15.0256 16.6502C15.0252 16.6055 15.034 16.5611 15.0515 16.5199C15.0689 16.4787 15.0946 16.4416 15.1271 16.4107C15.1595 16.3799 15.1979 16.3561 15.2399 16.3407C15.2819 16.3253 15.3266 16.3187 15.3712 16.3214C15.4098 16.3188 15.4486 16.3239 15.4852 16.3364C15.5218 16.3489 15.5555 16.3686 15.5845 16.3943C15.6134 16.42 15.6369 16.4512 15.6537 16.486C15.6704 16.5209 15.6801 16.5587 15.682 16.5974C15.682 16.8026 15.5212 16.9994 15.346 17.0018C15.2116 17.0042 15.0268 16.8014 15.0256 16.6502Z" fill="#FEF0BB"/>
<path d="M15.0028 15.1934C15.001 15.1508 15.008 15.1084 15.0234 15.0687C15.0388 15.029 15.0622 14.9929 15.0922 14.9627C15.1223 14.9325 15.1582 14.9089 15.1978 14.8932C15.2374 14.8776 15.2799 14.8704 15.3224 14.8719C15.365 14.8735 15.4067 14.8839 15.4451 14.9024C15.4834 14.9209 15.5175 14.9472 15.5452 14.9795C15.5729 15.0118 15.5936 15.0496 15.606 15.0903C15.6184 15.131 15.6222 15.1739 15.6172 15.2162C15.6182 15.2591 15.6106 15.3017 15.5949 15.3416C15.5792 15.3816 15.5556 15.418 15.5257 15.4487C15.4958 15.4794 15.46 15.5039 15.4205 15.5206C15.381 15.5373 15.3386 15.546 15.2956 15.5462C15.154 15.5498 15.0028 15.3734 15.0028 15.1934Z" fill="#FEF0BB"/>
<path d="M13.3228 20.2814C13.3263 20.1934 13.3603 20.1093 13.419 20.0436C13.4776 19.9779 13.5574 19.9347 13.6444 19.9214C13.7229 19.9292 13.7959 19.9653 13.8498 20.0229C13.9036 20.0805 13.9347 20.1557 13.9372 20.2346C13.9341 20.3203 13.9005 20.4021 13.8424 20.4653C13.7844 20.5284 13.7056 20.5687 13.6204 20.579C13.5422 20.5769 13.4677 20.5448 13.4124 20.4895C13.357 20.4341 13.325 20.3596 13.3228 20.2814Z" fill="#FEF0BB"/>
<path d="M16.1548 17.2814C16.2322 17.2802 16.3072 17.3084 16.3647 17.3602C16.4221 17.4121 16.4578 17.4839 16.4644 17.561C16.4548 17.735 16.2748 17.9366 16.1284 17.9366C16.0498 17.921 15.9784 17.8801 15.9253 17.82C15.8722 17.76 15.8403 17.6841 15.8344 17.6042C15.8461 17.5231 15.8836 17.448 15.9413 17.3898C15.999 17.3317 16.0739 17.2937 16.1548 17.2814Z" fill="#FEF0BB"/>
<path d="M14.4508 16.9406C14.4545 16.9819 14.4499 17.0235 14.4373 17.0631C14.4248 17.1026 14.4045 17.1392 14.3778 17.1709C14.351 17.2026 14.3182 17.2287 14.2813 17.2476C14.2445 17.2666 14.2042 17.2781 14.1628 17.2814C14.0831 17.2719 14.0091 17.2354 13.953 17.178C13.8969 17.1206 13.8621 17.0457 13.8544 16.9658C13.8508 16.9239 13.8558 16.8817 13.8689 16.8418C13.8821 16.8019 13.9033 16.765 13.9311 16.7335C13.9589 16.702 13.9928 16.6764 14.0308 16.6584C14.0688 16.6404 14.11 16.6302 14.152 16.6286C14.1928 16.6271 14.2334 16.6343 14.2713 16.6496C14.3091 16.6649 14.3432 16.6881 14.3714 16.7176C14.3996 16.747 14.4213 16.7821 14.435 16.8206C14.4487 16.859 14.4541 16.8999 14.4508 16.9406Z" fill="#FEF0BB"/>
<path d="M16.5317 16.4942C16.5341 16.4309 16.5538 16.3694 16.5888 16.3165C16.6237 16.2636 16.6724 16.2213 16.7297 16.1942C16.9373 16.1102 17.1485 16.2326 17.0801 16.5998C17.0683 16.6678 17.0333 16.7295 16.9809 16.7744C16.9286 16.8193 16.8622 16.8446 16.7933 16.8458C16.6613 16.8374 16.5305 16.7102 16.5317 16.4942Z" fill="#FEF0BB"/>
<path d="M12.5765 8.56458C12.6281 8.58138 12.6749 8.61618 12.6521 8.68458C12.6293 8.75298 12.5753 8.74338 12.5153 8.73138C12.3027 8.68164 12.0839 8.66345 11.8661 8.67738C11.7953 8.67738 11.7317 8.62698 11.6525 8.66898C11.6201 8.68698 11.5697 8.62578 11.6033 8.57658C11.6741 8.47218 11.7521 8.37378 11.8313 8.27538C11.9369 8.13858 12.2657 8.46258 12.5765 8.56458Z" fill="#FEF0BB"/>
<path d="M12.9725 17.183C13.1189 17.183 13.2713 17.3618 13.2725 17.543C13.2634 17.6146 13.2318 17.6815 13.1822 17.7339C13.1325 17.7864 13.0675 17.8216 12.9965 17.8346C12.8765 17.8346 12.6641 17.669 12.6629 17.5718C12.6581 17.3774 12.8105 17.1878 12.9725 17.183Z" fill="#FEF0BB"/>
<path d="M13.9145 14.2922C13.9102 14.3793 13.8756 14.4621 13.8166 14.5263C13.7577 14.5906 13.6781 14.6321 13.5917 14.6438C13.2089 14.6438 13.2425 14.0198 13.6205 14.0162C13.6937 14.0215 13.7628 14.0519 13.8163 14.1021C13.8698 14.1524 13.9045 14.2195 13.9145 14.2922Z" fill="#FEF0BB"/>
<path d="M13.5449 15.9026C13.5449 16.0814 13.3997 16.253 13.2521 16.2506C13.1225 16.2506 12.9917 16.0826 12.9941 15.9182C13.0031 15.8471 13.0351 15.7809 13.0851 15.7296C13.1351 15.6783 13.2004 15.6447 13.2713 15.6338C13.3071 15.6325 13.3429 15.6385 13.3764 15.6515C13.4098 15.6645 13.4403 15.6841 13.4659 15.7093C13.4915 15.7344 13.5117 15.7646 13.5253 15.7978C13.5389 15.831 13.5455 15.8667 13.5449 15.9026Z" fill="#FEF0BB"/>
<path d="M18.8164 14.687C18.8532 14.6702 18.8936 14.663 18.9339 14.666C18.9741 14.669 19.013 14.6821 19.0469 14.7041C19.0807 14.7261 19.1085 14.7563 19.1276 14.792C19.1467 14.8276 19.1565 14.8674 19.156 14.9078C19.1583 14.9677 19.1471 15.0274 19.1232 15.0825C19.0993 15.1375 19.0634 15.1865 19.018 15.2258C18.9855 15.2571 18.9436 15.2769 18.8987 15.2821C18.8538 15.2873 18.8085 15.2776 18.7696 15.2546C18.5596 15.1322 18.5908 14.8238 18.8164 14.687Z" fill="#FEF0BB"/>
<path d="M15.2104 13.4066C15.2007 13.486 15.1667 13.5605 15.113 13.6198C15.0593 13.6791 14.9885 13.7203 14.9104 13.7378C14.8362 13.7325 14.7668 13.6988 14.7169 13.6435C14.667 13.5882 14.6405 13.5158 14.6428 13.4414C14.6419 13.3705 14.6687 13.302 14.7176 13.2506C14.7665 13.1993 14.8336 13.1691 14.9044 13.1666C14.9754 13.1647 15.0448 13.1876 15.1007 13.2314C15.1566 13.2753 15.1954 13.3372 15.2104 13.4066Z" fill="#FEF0BB"/>
<path d="M19.6361 13.673C19.6289 13.8794 19.5269 14.0198 19.3865 14.0186C19.3118 14.0125 19.2423 13.9782 19.1921 13.9226C19.1419 13.8671 19.1148 13.7944 19.1163 13.7195C19.1178 13.6447 19.1479 13.5732 19.2003 13.5197C19.2528 13.4662 19.3236 13.4348 19.3985 13.4318C19.5413 13.4414 19.6673 13.5158 19.6361 13.673Z" fill="#FEF0BB"/>
<path d="M14.0836 15.2414C14.0906 15.1736 14.1208 15.1104 14.1692 15.0625C14.2175 15.0146 14.2811 14.9849 14.3488 14.9786C14.3841 14.9761 14.4194 14.9808 14.4527 14.9923C14.4861 15.0038 14.5168 15.022 14.543 15.0456C14.5692 15.0692 14.5904 15.0979 14.6053 15.1299C14.6202 15.1619 14.6284 15.1965 14.6296 15.2318C14.6296 15.3698 14.5096 15.5498 14.416 15.5498C14.3312 15.5524 14.2488 15.5215 14.1866 15.4638C14.1244 15.4061 14.0874 15.3262 14.0836 15.2414Z" fill="#FEF0BB"/>
<path d="M16.0828 19.7474C16.0136 19.7364 15.9504 19.7014 15.9043 19.6486C15.8582 19.5957 15.8322 19.5283 15.8308 19.4582C15.8324 19.3838 15.8628 19.3129 15.9156 19.2605C15.9685 19.2081 16.0396 19.1783 16.114 19.1774C16.4068 19.1762 16.3888 19.7426 16.0828 19.7474Z" fill="#FEF0BB"/>
<path d="M15.6028 14.357C15.5677 14.3594 15.5325 14.3545 15.4993 14.3428C15.4661 14.331 15.4357 14.3125 15.41 14.2885C15.3843 14.2644 15.3638 14.2354 15.3498 14.2031C15.3357 14.1708 15.3285 14.136 15.3285 14.1008C15.3285 14.0656 15.3357 14.0308 15.3498 13.9985C15.3638 13.9662 15.3843 13.9371 15.41 13.9131C15.4357 13.8891 15.4661 13.8706 15.4993 13.8588C15.5325 13.847 15.5677 13.8422 15.6028 13.8446C15.639 13.8403 15.6757 13.8437 15.7105 13.8546C15.7453 13.8655 15.7773 13.8837 15.8046 13.9079C15.8319 13.9321 15.8537 13.9618 15.8686 13.9951C15.8835 14.0283 15.8913 14.0643 15.8913 14.1008C15.8913 14.1372 15.8835 14.1733 15.8686 14.2065C15.8537 14.2398 15.8319 14.2695 15.8046 14.2937C15.7773 14.3179 15.7453 14.336 15.7105 14.3469C15.6757 14.3579 15.639 14.3613 15.6028 14.357Z" fill="#FEF0BB"/>
<path d="M4.21965 7.54578C4.21965 7.60578 4.20765 7.66578 4.13565 7.66578C4.06365 7.66578 4.05765 7.60458 4.05765 7.54578C4.05765 7.08618 4.09845 6.36738 4.09965 6.35898C4.09965 6.30858 4.11765 6.25458 4.17645 6.25698C4.23525 6.25938 4.24125 6.31578 4.24125 6.36618C4.24005 7.43058 4.21485 7.31178 4.21965 7.54578Z" fill="#FEF0BB"/>
<path d="M12.322 20.6162C12.2792 20.6174 12.2372 20.6051 12.2018 20.5809C12.1665 20.5568 12.1397 20.5221 12.1252 20.4818C12.0796 20.3774 12.1396 20.273 12.1564 20.1698C12.1636 20.1278 12.2224 20.1146 12.2692 20.1434C12.3446 20.1838 12.4102 20.2403 12.4612 20.309C12.4948 20.3606 12.5308 20.429 12.4888 20.4794C12.4468 20.5298 12.4144 20.6414 12.322 20.6162Z" fill="#FEF0BB"/>
<path d="M19.78 14.7614C19.7576 14.9003 19.7113 15.0342 19.6432 15.1574C19.6084 15.2198 19.5448 15.2042 19.4968 15.1574C19.3924 15.0494 19.4572 14.825 19.546 14.7002C19.5606 14.6746 19.5832 14.6546 19.6103 14.6431C19.6374 14.6316 19.6675 14.6293 19.696 14.6366C19.7572 14.6414 19.7716 14.7014 19.78 14.7614Z" fill="#FEF0BB"/>
<path d="M14.3273 5.74098C14.328 5.61407 14.3454 5.4878 14.3789 5.36538C14.3909 5.32218 14.4005 5.28138 14.4545 5.33538C14.4729 5.35826 14.4991 5.37359 14.528 5.37845C14.557 5.38332 14.5868 5.37739 14.6117 5.36178C14.6389 5.3432 14.6597 5.31655 14.6711 5.28557C14.6826 5.25459 14.684 5.22082 14.6753 5.18898C14.6699 5.16125 14.6549 5.13629 14.633 5.11851C14.611 5.10073 14.5835 5.09127 14.5553 5.09178C14.5097 5.09178 14.4953 5.07018 14.4977 5.02818C14.5067 4.83994 14.4873 4.65142 14.4401 4.46898C14.4324 4.43293 14.4342 4.3955 14.4453 4.36036C14.4565 4.32522 14.4766 4.29359 14.5037 4.26858C14.6969 4.04538 14.9489 3.87978 15.1109 3.62898C15.1365 3.59168 15.1574 3.55138 15.1733 3.50898C15.2405 3.31938 15.4061 3.41298 15.4469 3.48378C15.6567 3.86491 15.9884 4.16453 16.3889 4.33458C16.5151 4.40171 16.6483 4.45483 16.7861 4.49298C16.8145 4.50103 16.8408 4.51504 16.8634 4.53407C16.8859 4.55311 16.9042 4.57674 16.9169 4.60338C17.0399 4.76802 17.1881 4.9122 17.3561 5.03058C17.3804 5.048 17.3991 5.0722 17.4097 5.10015C17.4204 5.12811 17.4226 5.15858 17.4161 5.18778C17.3689 5.50707 17.3795 5.83223 17.4473 6.14778C17.4561 6.19503 17.4719 6.24072 17.4941 6.28338C17.5649 6.41778 17.3969 6.40338 17.4713 6.57498C17.4836 6.59547 17.4915 6.61839 17.4942 6.64217C17.497 6.66595 17.4945 6.69005 17.4871 6.71282C17.4797 6.73559 17.4675 6.7565 17.4513 6.77412C17.4351 6.79175 17.4153 6.80569 17.3933 6.81498C17.1473 6.98298 16.7453 6.98418 16.2389 7.15818C16.1537 7.18698 16.0877 7.13418 16.0853 7.03818C16.0853 6.97218 16.0673 6.94338 15.9977 6.95058C15.7385 6.97578 15.5177 6.85218 15.3209 6.72018C15.0125 6.51858 14.6921 6.33618 14.4305 6.06618C14.3905 6.02282 14.3606 5.97122 14.3428 5.91504C14.3249 5.85885 14.3196 5.79944 14.3273 5.74098ZM15.5009 6.34938C15.5287 6.34775 15.5564 6.34414 15.5837 6.33858C15.7481 6.29898 16.1837 5.81298 15.8993 5.77698C15.8405 5.76978 15.5921 5.89098 15.3569 5.95458C15.2477 5.98458 15.1997 6.02898 15.2129 6.14178C15.2261 6.25458 15.3233 6.34818 15.5009 6.34938ZM16.8977 5.12298C16.8966 5.10164 16.8913 5.08073 16.882 5.06146C16.8728 5.04219 16.8598 5.02496 16.8438 5.01078C16.8279 4.99659 16.8092 4.98572 16.789 4.97882C16.7688 4.97192 16.7474 4.96912 16.7261 4.97058C16.6781 4.97426 16.6334 4.99626 16.6012 5.032C16.5691 5.06775 16.5519 5.11451 16.5533 5.16258C16.556 5.20699 16.5742 5.24904 16.6046 5.28147C16.6351 5.3139 16.6759 5.33467 16.7201 5.34018C16.7701 5.32996 16.8152 5.30277 16.8475 5.26319C16.8799 5.22362 16.8976 5.1741 16.8977 5.12298Z" fill="#FFC7D6"/>
<path d="M3.85127 5.97138C3.78483 5.95275 3.72632 5.91286 3.68471 5.85781C3.64309 5.80276 3.62067 5.73559 3.62087 5.66658C3.62197 5.6145 3.60481 5.56368 3.57238 5.52291C3.53994 5.48215 3.49427 5.45401 3.44327 5.44338C3.28607 5.39898 3.12887 5.35338 2.96327 5.31378C2.76167 5.26458 2.72327 5.39778 2.61647 5.63298C2.49214 5.58615 2.35871 5.56849 2.22647 5.58138C2.10515 5.61608 1.98741 5.66229 1.87487 5.71938C1.80314 5.74889 1.74026 5.79644 1.69232 5.85741C1.64439 5.91839 1.61302 5.99072 1.60127 6.06738C1.51343 6.51979 1.48879 6.9822 1.52807 7.44138C1.54607 7.71498 1.56047 7.75938 1.85687 7.84338C2.09687 7.91058 2.33687 7.96338 2.57687 8.00298C2.78715 8.02487 2.99566 8.06136 3.20087 8.11218C3.43896 8.1868 3.69658 8.16748 3.92087 8.05818C4.04087 8.00538 4.04087 7.91058 4.03487 7.81818C4.03487 7.80858 4.10687 6.31338 4.07927 6.17538C4.05767 6.07698 3.99887 6.02658 3.85127 5.97138ZM3.16607 6.73098C3.15287 7.19658 3.10487 7.60338 3.10847 7.71258C3.10847 7.77738 3.08447 7.79658 3.02327 7.79418C2.60135 7.73136 2.18434 7.63914 1.77527 7.51818C1.68767 7.48458 1.65527 7.44138 1.66847 7.35378C1.66655 6.98456 1.69424 6.61578 1.75127 6.25098C1.75967 6.19578 1.77647 6.18618 1.83287 6.20298C2.18207 6.31338 2.53247 6.41778 2.88287 6.52218C2.92239 6.53186 2.96246 6.53907 3.00287 6.54378C3.14447 6.57258 3.16967 6.58938 3.16607 6.73098ZM3.31607 7.86738C3.30162 7.86942 3.2869 7.86805 3.27307 7.86339C3.25925 7.85872 3.2467 7.85089 3.23644 7.84051C3.22618 7.83013 3.21849 7.8175 3.21398 7.80363C3.20947 7.78975 3.20827 7.77501 3.21047 7.76058C3.21047 7.70538 3.22367 7.66578 3.28847 7.66578C3.35327 7.66578 3.39407 7.70298 3.39767 7.75458C3.39887 7.82658 3.37247 7.86738 3.31607 7.86738Z" fill="#FFC7D6"/>
<path d="M10.7297 7.73538C10.4405 7.32498 10.2497 7.36338 10.1453 7.17738C10.1327 7.16273 10.1259 7.14406 10.126 7.12478C10.126 7.10551 10.1331 7.0869 10.1457 7.07236C10.1584 7.05781 10.1758 7.0483 10.1949 7.04555C10.214 7.0428 10.2334 7.047 10.2497 7.05738C10.2864 7.07569 10.3213 7.09739 10.3541 7.12218C10.4893 7.20797 10.6433 7.25984 10.8029 7.27338C10.8629 7.28538 10.8545 7.24818 10.8341 7.21218C10.7866 7.13989 10.7465 7.06312 10.7141 6.98298C10.6985 6.92898 10.6745 6.87258 10.7333 6.83538C10.7921 6.79818 10.8437 6.83538 10.8821 6.88698C11.0909 7.14618 11.1125 7.22298 11.4005 7.41738C11.3984 7.29589 11.4133 7.17471 11.4449 7.05738C11.4761 6.97578 11.4917 6.86418 11.6045 6.87258C11.7173 6.88098 11.7041 6.99258 11.7137 7.06578C11.7526 7.33874 11.8091 7.6089 11.8829 7.87458C11.9705 8.21778 11.7077 8.31498 11.4893 8.63778C11.4485 8.69778 11.3969 8.69898 11.3273 8.67738C11.1317 8.60304 10.9312 8.54249 10.7273 8.49618C10.6321 8.49015 10.5382 8.47201 10.4477 8.44218C10.3925 8.41818 10.3277 8.38818 10.3433 8.32218C10.3589 8.25618 10.4801 8.25258 10.5173 8.24538C10.5809 8.23218 10.6673 8.22258 10.6841 8.16738C10.7009 8.11218 10.6109 8.08938 10.5641 8.05818C10.4543 7.95999 10.3251 7.88598 10.1849 7.84098C10.1751 7.84052 10.1656 7.83782 10.1571 7.83311C10.1486 7.82839 10.1412 7.82177 10.1357 7.81377C10.1301 7.80577 10.1264 7.79659 10.125 7.78695C10.1235 7.77731 10.1243 7.76747 10.1273 7.75818C10.1453 7.69698 10.1969 7.69218 10.2473 7.69698L10.7297 7.73538Z" fill="#FFC7D6"/>
<path d="M20.3213 2.00658C20.7437 2.03538 21.0293 2.27178 21.0509 2.71338C21.0517 2.79592 21.036 2.87779 21.0049 2.95422C20.9737 3.03065 20.9276 3.1001 20.8693 3.15852C20.811 3.21694 20.7416 3.26316 20.6652 3.29449C20.5889 3.32582 20.507 3.34162 20.4245 3.34098C20.2375 3.33694 20.0594 3.26028 19.9279 3.12724C19.7965 2.9942 19.7219 2.81522 19.7201 2.62818C19.7172 2.54749 19.7306 2.46704 19.7595 2.39165C19.7884 2.31627 19.8323 2.24749 19.8884 2.18945C19.9445 2.13141 20.0118 2.0853 20.0862 2.05388C20.1606 2.02245 20.2405 2.00637 20.3213 2.00658ZM20.1725 2.45778C20.1317 2.45778 20.1029 2.46978 20.1149 2.51778C20.1485 2.64618 20.1809 2.77578 20.2205 2.90298C20.2229 2.91582 20.229 2.92768 20.2381 2.9371C20.2471 2.94652 20.2587 2.9531 20.2715 2.95602C20.2842 2.95895 20.2975 2.95811 20.3098 2.95359C20.322 2.94907 20.3327 2.94107 20.3405 2.93058C20.4413 2.81778 20.5349 2.70018 20.6237 2.57898C20.6705 2.51538 20.6441 2.46978 20.5625 2.45898C20.5229 2.45778 20.2169 2.45898 20.1725 2.45778Z" fill="#FFC7D6"/>
<path d="M14.7953 21.8318C14.6501 21.8594 14.5841 21.779 14.5205 21.665C14.4281 21.4982 14.3933 21.305 14.2673 21.1514C14.2601 21.1447 14.2548 21.1362 14.252 21.1268C14.2492 21.1174 14.2489 21.1074 14.2512 21.0979C14.2536 21.0884 14.2584 21.0796 14.2652 21.0726C14.272 21.0655 14.2806 21.0604 14.2901 21.0578C14.3758 21.0305 14.4568 20.99 14.5301 20.9378C14.6825 20.8598 14.8325 20.909 14.9801 20.927C15.2201 20.9558 15.5201 20.927 15.7481 20.963C15.8117 20.9738 15.8525 21.0074 15.8117 21.077C15.7709 21.1466 15.7985 21.1838 15.7937 21.2378C15.7912 21.3965 15.7286 21.5483 15.6185 21.6626C15.5857 21.6958 15.544 21.7187 15.4985 21.7286C15.2609 21.7778 15.0221 21.773 14.7953 21.8318Z" fill="#FFC7D6"/>
<path d="M12.7145 21.5402C12.6343 21.5387 12.5542 21.5423 12.4745 21.551C12.4314 21.556 12.388 21.5451 12.3524 21.5204C12.3168 21.4956 12.2915 21.4587 12.2813 21.4166C12.2149 21.2229 12.1246 21.0383 12.0125 20.867C11.9549 20.7602 11.9705 20.747 12.0833 20.7134C12.2513 20.6678 12.4073 20.7314 12.5633 20.7434C12.7841 20.7614 13.4417 20.8334 13.6577 20.8754C13.7069 20.885 13.7777 20.8958 13.7777 20.9666C13.7777 21.0374 13.7261 21.0542 13.6805 21.0746C13.5147 21.1556 13.3572 21.2524 13.2101 21.3638C13.2017 21.3638 13.1909 21.3746 13.1861 21.383C13.0829 21.5678 12.9029 21.5378 12.7145 21.5402Z" fill="#FFC7D6"/>
<path d="M4.77528 6.73578C4.79328 7.00818 4.74528 7.26978 4.75608 7.53378C4.75843 7.55177 4.75717 7.57004 4.75239 7.58754C4.74761 7.60503 4.7394 7.62141 4.72823 7.6357C4.71707 7.64999 4.70317 7.66192 4.68735 7.6708C4.67153 7.67967 4.6541 7.68531 4.63608 7.68738C4.52568 7.71138 4.41888 7.77498 4.30008 7.70658C4.27418 7.69773 4.25209 7.68029 4.23747 7.65715C4.22284 7.63401 4.21657 7.60657 4.21968 7.57938C4.31328 6.32178 4.21968 6.30738 4.30008 6.28818C4.38048 6.26898 4.46328 6.24018 4.54608 6.21978C4.68768 6.18498 4.76688 6.23898 4.77528 6.38418C4.78128 6.50418 4.77528 6.62418 4.77528 6.73578Z" fill="#FFC7D6"/>
<path d="M14.2829 1.65138C14.0741 1.39578 13.6289 0.742982 13.6241 0.734582C13.5725 0.648182 13.5833 0.600182 13.6913 0.528182C13.7684 0.47447 13.8485 0.425191 13.9313 0.380582C14.0249 0.330182 14.0765 0.351782 14.1329 0.441782C14.3201 0.740582 14.4929 1.04178 14.6597 1.35618C14.7329 1.49898 14.6969 1.59618 14.5217 1.67178C14.4209 1.71258 14.3393 1.72698 14.2829 1.65138Z" fill="#FFC7D6"/>
<path d="M6.29207 5.26578C5.52167 5.23458 5.23487 5.22618 5.11607 5.21778C4.90247 5.20338 4.93607 5.09778 5.11607 5.09778C5.50129 5.08916 5.88663 5.10761 6.26927 5.15298C6.36767 5.16858 6.46607 5.12778 6.47567 5.19498C6.48527 5.26218 6.38087 5.25858 6.29207 5.26578Z" fill="#FFC7D6"/>
<path d="M5.25768 4.16778C5.12808 4.16778 5.09208 4.03218 5.25768 4.02498C5.62368 4.00818 5.98968 4.05258 6.35568 4.04298C6.47568 4.04298 6.47568 4.16298 6.35568 4.16298C6.34488 4.16898 6.10968 4.17378 5.25768 4.16778Z" fill="#FFC7D6"/>
<path d="M6.15287 4.47138C6.31487 4.49658 6.46487 4.43658 6.46127 4.54098C6.46127 4.59738 6.41447 4.60218 6.37127 4.59858C6.14687 4.58298 5.92127 4.57218 5.69807 4.54818C5.58647 4.53618 5.31767 4.54818 5.23847 4.52658C5.20007 4.51818 5.14607 4.51698 5.15447 4.45818C5.16287 4.39938 5.20847 4.41498 5.24567 4.41378C5.54922 4.4035 5.85305 4.42279 6.15287 4.47138Z" fill="#FFC7D6"/>
<path d="M5.28286 5.77338C5.66446 5.79498 6.03286 5.79138 6.39766 5.83698C6.43966 5.83698 6.50206 5.84658 6.49606 5.90178C6.49006 5.95698 6.43366 5.95098 6.37606 5.94618C6.15286 5.92578 5.92846 5.90418 5.70286 5.89938C5.54926 5.89938 5.39686 5.87418 5.24326 5.87538C5.19766 5.87538 5.13886 5.87538 5.13766 5.81898C5.13646 5.76258 5.17966 5.77338 5.28286 5.77338Z" fill="#FFC7D6"/>
<path d="M5.59846 6.37098C5.84566 6.35418 6.08566 6.42498 6.33166 6.41298C6.37126 6.41298 6.42886 6.42258 6.41566 6.47538C6.40246 6.52818 6.33766 6.53178 6.28606 6.52818C6.10246 6.51738 5.91886 6.49698 5.73526 6.49458C5.59006 6.49458 5.44486 6.45018 5.29846 6.49458C5.28992 6.49688 5.28099 6.49733 5.27226 6.49592C5.26353 6.4945 5.2552 6.49124 5.24783 6.48636C5.24045 6.48149 5.2342 6.47509 5.22948 6.46762C5.22476 6.46014 5.22169 6.45174 5.22046 6.44298C5.22046 6.40338 5.25406 6.39258 5.28166 6.38658C5.38668 6.37297 5.49261 6.36776 5.59846 6.37098Z" fill="#FFC7D6"/>
<path d="M6.05327 5.44338C6.09767 5.44338 6.15287 5.44338 6.15047 5.50938C6.14807 5.57538 6.09287 5.54658 6.05927 5.54658C5.79589 5.55081 5.53251 5.53758 5.27087 5.50698C5.18567 5.49498 5.20127 5.45538 5.27087 5.43858C5.53133 5.41783 5.79309 5.41944 6.05327 5.44338Z" fill="#FFC7D6"/>
<path d="M5.37288 6.80178C5.34168 6.80178 5.30328 6.80178 5.30328 6.76098C5.30328 6.72018 5.34168 6.72378 5.37168 6.71898C5.65608 6.67938 5.93928 6.73698 6.22248 6.71898C6.26448 6.71898 6.30528 6.73098 6.30768 6.77418C6.31008 6.81738 6.26088 6.82098 6.22368 6.82098C5.68728 6.82938 5.61288 6.78738 5.37288 6.80178Z" fill="#FFC7D6"/>
<path d="M11.6633 8.73738C11.9105 8.72058 15.0869 8.68098 15.5261 8.66418C15.5671 8.66189 15.6078 8.67374 15.6412 8.69775C15.6746 8.72177 15.6987 8.75651 15.7097 8.79618C15.9317 9.31698 16.5497 11.0762 16.7381 11.6114C16.7693 11.699 16.8101 11.7314 16.9061 11.7062C17.1434 11.6595 17.3871 11.655 17.6261 11.693C17.8481 11.7182 18.0005 11.6522 18.0065 11.7902C18.0065 11.8706 17.9477 11.897 17.8865 11.9102C17.545 11.9638 17.1978 11.9707 16.8545 11.9306C16.7885 11.9306 12.8573 11.993 12.4601 11.9942C12.2765 11.9942 12.2657 11.987 12.2057 11.8106C12.0221 11.2658 11.9465 10.9478 11.3453 8.90898C11.2889 8.70858 11.3597 8.73738 11.6633 8.73738ZM13.3757 10.1774C13.3877 10.3538 13.4621 10.697 13.5713 10.7966C13.6805 10.8962 13.8113 10.8434 13.8329 10.7234C13.8654 10.5544 13.8496 10.3797 13.7873 10.2194C13.6277 9.74418 13.3457 10.0538 13.3757 10.1726V10.1774Z" fill="#A6EEF8"/>
<path d="M20.2721 12.5858C20.2927 12.5826 20.3137 12.5874 20.3309 12.5992C20.3481 12.611 20.3601 12.629 20.3645 12.6494C20.5565 13.289 20.5481 13.181 20.4749 13.6286C20.4149 13.9886 20.3837 14.6642 20.2541 15.377C20.1917 15.7154 19.9709 15.8966 19.6673 16.001C18.8021 16.2998 18.6713 16.1486 18.2957 16.205C18.1829 16.2218 18.1325 16.1618 18.1589 16.0538C18.165 15.9805 18.1968 15.9117 18.2486 15.8595C18.3003 15.8073 18.3688 15.775 18.4421 15.7682C18.7853 15.7048 19.1181 15.5942 19.4309 15.4394C19.7369 15.3062 19.8689 15.0578 19.8857 14.7326C19.9361 13.7726 19.7393 13.4522 19.9373 13.1534C19.98 13.0969 20.0031 13.028 20.0031 12.9572C20.0031 12.8864 19.98 12.8175 19.9373 12.761C19.8821 12.683 19.9169 12.6062 20.0165 12.5894C20.0537 12.5834 20.2217 12.5882 20.2721 12.5858Z" fill="#A6EEF8"/>
<path d="M20.7724 8.80218C20.9956 8.84178 21.2272 8.82738 21.172 9.01338C21.041 9.51906 20.9444 10.033 20.8828 10.5518C20.8 11.075 20.8624 11.243 20.7496 11.7746C20.7268 11.885 20.6536 11.9222 20.5408 11.8946C20.3832 11.8603 20.2221 11.8446 20.0608 11.8478C20.0455 11.8475 20.0303 11.8508 20.0164 11.8572C20.0025 11.8636 19.9902 11.8731 19.9804 11.885C19.9738 11.8929 19.9656 11.8995 19.9563 11.9043C19.9471 11.9091 19.937 11.912 19.9266 11.9129C19.9163 11.9138 19.9058 11.9126 19.8959 11.9095C19.886 11.9063 19.8768 11.9013 19.8688 11.8946C19.8328 11.8634 19.846 11.825 19.8688 11.7914C20.0764 11.471 20.1268 11.1026 20.176 10.7378C20.218 10.4174 20.3032 10.109 20.3704 9.79458C20.4292 9.52458 20.4652 9.24978 20.5072 8.97738C20.5228 8.85258 20.5936 8.80098 20.7724 8.80218Z" fill="#A6EEF8"/>
<path d="M14.8829 2.76138C14.6897 2.80698 14.5541 2.95338 14.3885 3.04698C14.3033 3.09498 14.2229 3.15498 14.1113 3.09978C14.0261 3.05778 14.0237 3.00618 14.0621 2.93538C14.1533 2.80372 14.2774 2.69822 14.4221 2.62938C14.6506 2.4904 14.908 2.40582 15.1745 2.38218C15.3701 2.36058 16.0805 2.10258 16.7345 2.50218C16.9157 2.61138 17.5169 2.67498 18.0161 3.52818C18.1789 3.8068 18.2929 4.11117 18.3533 4.42818C18.3821 4.57698 18.3161 4.64298 18.1673 4.62138C17.9273 4.58538 17.8937 4.58298 17.9153 4.42938C17.9185 4.39058 17.907 4.35197 17.8829 4.32138C17.7005 3.98418 17.6009 3.26658 16.8161 2.90658C16.2929 2.66898 16.0385 2.48298 14.8829 2.76138Z" fill="#A6EEF8"/>
<path d="M2.42925 9.78738C2.42925 9.74778 2.42925 9.54738 2.47245 9.53538C2.48915 9.5328 2.50494 9.52607 2.51836 9.51579C2.53178 9.50552 2.5424 9.49203 2.54925 9.47658C2.55947 9.33922 2.55059 9.2011 2.52285 9.06618C2.50373 9.04941 2.48104 9.03723 2.4565 9.03058C2.43196 9.02392 2.40622 9.02296 2.38125 9.02778C2.31045 9.02778 2.29725 8.95818 2.29605 8.90778C2.29005 8.61018 2.25885 8.30778 2.26965 8.01498C2.26965 7.96338 2.28645 7.93218 2.35245 7.94538C2.51011 7.97515 2.66564 8.01524 2.81805 8.06538C2.87085 8.08218 2.91405 8.10618 2.90925 8.17098C2.90881 8.42038 2.92284 8.6696 2.95125 8.91738C2.95125 9.01218 2.92365 9.06378 2.83125 9.06618C2.78205 9.06618 2.76765 9.08058 2.77605 9.13458C2.78685 9.20778 2.78205 9.28458 2.78565 9.36018C2.78925 9.43578 2.76765 9.48018 2.86005 9.49938C2.92245 9.51018 2.89605 9.62538 2.91885 9.85098C2.92605 9.92658 2.89965 9.99498 2.79885 9.99978C2.75445 9.99978 2.71005 10.013 2.66685 10.0178C2.42925 10.0394 2.42925 10.0358 2.42925 9.78738Z" fill="#A6EEF8"/>
<path d="M9.78885 11.789C9.85005 11.8058 9.91725 11.8298 9.90885 11.909C9.90045 11.9882 9.84045 12.0134 9.76845 12.0146C9.12525 12.0146 8.48565 12.1058 7.84125 12.083C7.38405 12.0662 7.14165 12.203 7.10565 12.0314C7.1005 11.9789 7.11587 11.9265 7.14854 11.8851C7.1812 11.8437 7.22862 11.8166 7.28085 11.8094C7.87965 11.7326 9.75645 11.7806 9.78885 11.789Z" fill="#A6EEF8"/>
<path d="M18.7732 1.50498C18.6624 1.31097 18.563 1.11062 18.4756 0.90498C18.424 0.76458 18.4324 0.72138 18.5524 0.63258C18.7072 0.51258 19.114 0.392581 19.3384 0.258181C19.5148 0.153781 19.4788 0.43938 19.5784 0.30498L19.6912 0.14658C19.756 0.0553805 19.8424 0.0589805 19.8868 0.16218C19.96 0.33138 20.0284 0.50298 20.0932 0.67578C20.116 0.73458 20.0932 0.775381 20.0236 0.783781C19.9972 0.783781 19.9684 0.783781 19.942 0.783781C19.7788 0.801781 19.7692 0.81498 19.8112 0.96738C19.8214 0.993388 19.8221 1.02212 19.8134 1.04862C19.8046 1.07512 19.7869 1.09774 19.7632 1.11258C19.4995 1.28984 19.218 1.43905 18.9232 1.55778C18.8961 1.5688 18.8659 1.56952 18.8382 1.55979C18.8106 1.55007 18.7875 1.53057 18.7732 1.50498ZM19.6564 0.97938C19.5821 0.799627 19.4955 0.625213 19.3972 0.45738C19.3708 0.40818 19.3444 0.434581 19.3144 0.447781C18.6328 0.75258 18.562 0.765781 18.6076 0.853381C18.6952 1.02018 18.7804 1.18698 18.8656 1.35498C18.8682 1.36469 18.873 1.37366 18.8797 1.38115C18.8864 1.38863 18.8948 1.39443 18.9042 1.39806C18.9135 1.40169 18.9236 1.40305 18.9336 1.40202C18.9436 1.401 18.9532 1.39763 18.9616 1.39218C19.189 1.29728 19.4082 1.18369 19.6168 1.05258C19.6315 1.04762 19.6437 1.03732 19.651 1.02375C19.6583 1.01017 19.6603 0.994327 19.6564 0.97938ZM19.7284 0.76578C19.7692 0.69378 19.8364 0.69378 19.8928 0.67458C19.9168 0.66618 19.9516 0.67458 19.9336 0.62418C19.7956 0.29538 19.8028 0.24138 19.7464 0.30738C19.6913 0.36472 19.6332 0.419191 19.5724 0.47058C19.5724 0.47058 19.648 0.60978 19.7284 0.76578Z" fill="#A6EEF8"/>
<path d="M15.0497 0.228181C15.0497 0.154981 15.0605 0.121381 15.1061 0.108181C15.2645 0.0829809 15.3749 -0.111419 15.4577 0.0913809C15.6893 0.658981 15.7829 1.07658 15.8849 1.31058C15.9245 1.40298 15.8969 1.45818 15.7997 1.48698C15.7734 1.49479 15.7478 1.50442 15.7229 1.51578C15.7072 1.52443 15.6899 1.52948 15.6721 1.53058C15.6543 1.53167 15.6364 1.52878 15.6199 1.52211C15.6033 1.51545 15.5885 1.50517 15.5764 1.49203C15.5643 1.4789 15.5553 1.46323 15.5501 1.44618C15.5501 1.44618 15.2669 0.823381 15.0497 0.228181Z" fill="#A6EEF8"/>
<path d="M10.2401 5.48538C9.62566 5.53098 8.98246 5.52498 8.34046 5.55018C8.00446 5.56338 7.93726 5.59218 7.93366 5.52258C7.93006 5.45298 7.98766 5.46978 8.02606 5.46738C8.17366 5.45778 8.32006 5.44458 8.46646 5.44578C9.08206 5.44578 10.2245 5.36418 10.4045 5.38578C10.4114 5.38594 10.4182 5.38746 10.4246 5.39026C10.4309 5.39305 10.4367 5.39708 10.4415 5.40209C10.4462 5.4071 10.45 5.41301 10.4525 5.41948C10.455 5.42595 10.4562 5.43285 10.4561 5.43978C10.4549 5.49738 10.4093 5.48538 10.2401 5.48538Z" fill="#A6EEF8"/>
<path d="M7.97205 4.18698C7.86525 4.17858 7.85205 4.06698 7.97205 4.06698C8.56005 4.07418 8.99445 3.99498 9.43725 4.02618C9.52845 4.03338 9.56445 4.13658 9.43725 4.14618C9.41325 4.15458 8.29365 4.21338 7.97205 4.18698Z" fill="#A6EEF8"/>
<path d="M8.70646 5.85618C9.11446 5.87898 9.73126 5.80338 9.98086 5.81418C9.98582 5.81324 9.99093 5.81328 9.99587 5.8143C10.0008 5.81533 10.0055 5.81732 10.0097 5.82016C10.0139 5.823 10.0175 5.82664 10.0202 5.83086C10.023 5.83509 10.0249 5.83982 10.0259 5.84478C10.0268 5.84974 10.0268 5.85485 10.0257 5.85979C10.0247 5.86474 10.0227 5.86944 10.0199 5.87362C10.017 5.8778 10.0134 5.88138 10.0092 5.88415C10.005 5.88692 10.0002 5.88884 9.99526 5.88978C9.96709 5.90235 9.93713 5.91045 9.90646 5.91378C9.47772 5.95416 9.04684 5.96699 8.61646 5.95218C8.42566 5.93898 8.23486 5.96298 8.04526 5.93898C8.01286 5.93898 7.95526 5.95338 7.96006 5.89698C7.96486 5.84058 8.00446 5.85618 8.70646 5.85618Z" fill="#A6EEF8"/>
<path d="M8.25525 6.28698C8.13525 6.28698 8.11365 6.22338 8.25525 6.20538C8.61525 6.15858 8.97525 6.21258 9.33525 6.20538C9.54165 6.20538 9.74565 6.18258 9.95085 6.18258C10.0708 6.18258 10.0924 6.26898 9.95805 6.28578C9.51765 6.34218 8.89965 6.27858 8.25525 6.28698Z" fill="#A6EEF8"/>
<path d="M12.2273 5.01138C11.6273 4.97178 11.2877 5.01138 10.7621 4.97058C10.7417 4.97058 10.7177 4.97058 10.7117 4.94538C10.7057 4.92018 10.7357 4.90938 10.7573 4.90458C10.9793 4.85658 11.8637 4.92018 12.4481 4.91178C12.5537 4.91058 12.7409 5.01138 12.2273 5.01138Z" fill="#A6EEF8"/>
<path d="M8.27085 4.97298C8.11245 4.96458 7.99005 4.97298 7.99125 4.89618C7.99125 4.85898 8.02365 4.84578 8.05605 4.84338C8.33099 4.81379 8.60775 4.80457 8.88405 4.81578C8.92125 4.81578 8.98485 4.81578 8.97285 4.88658C8.95725 4.98978 8.89965 4.92138 8.27085 4.97298Z" fill="#A6EEF8"/>
<path d="M10.4849 4.22538C10.4441 4.22538 10.3793 4.22538 10.3817 4.17258C10.3841 4.11978 10.4477 4.12818 10.4885 4.12698C11.3537 4.11018 10.6601 4.09698 11.5685 4.12698C11.6069 4.12698 11.6525 4.12698 11.6513 4.17978C11.6501 4.23258 11.6033 4.22778 11.5649 4.22898L10.4849 4.22538Z" fill="#A6EEF8"/>
<path d="M8.31525 4.47618C8.38245 4.46778 9.11805 4.45818 9.12165 4.45818C9.25605 4.47018 9.27885 4.55658 9.12165 4.56018C8.18085 4.58778 8.24925 4.58418 8.10285 4.56018C8.07405 4.56018 8.04765 4.54338 8.05245 4.50978C8.05725 4.47618 8.09085 4.47618 8.31525 4.47618Z" fill="#A6EEF8"/>
<path d="M12.6028 5.35698C12.3208 5.33898 11.6644 5.34258 11.446 5.31738C11.3776 5.31018 11.3692 5.23818 11.446 5.23818C11.5687 5.23097 11.6917 5.23097 11.8144 5.23818C12.0544 5.26458 12.2944 5.24778 12.5416 5.25378C12.6124 5.25378 12.6988 5.24658 12.6964 5.31018C12.694 5.37378 12.634 5.35458 12.6028 5.35698Z" fill="#A6EEF8"/>
<path d="M11.3393 4.44138C11.3801 4.45818 11.4593 4.44138 11.4593 4.50258C11.4593 4.56378 11.3825 4.54218 11.3393 4.54098C11.0285 4.52898 10.7177 4.51338 10.4081 4.49898C10.2797 4.49298 10.2881 4.41858 10.3601 4.41858C10.3865 4.41498 11.3309 4.43418 11.3393 4.44138Z" fill="#A6EEF8"/>
<path d="M12.2032 5.58858C12.2032 5.52258 12.2848 5.55498 12.3304 5.54538C12.3637 5.53824 12.3974 5.53343 12.4312 5.53098C12.4648 5.53098 12.5068 5.53098 12.5116 5.57298C12.5212 5.65938 12.2044 5.63058 12.2032 5.58858Z" fill="#A6EEF8"/>
<path d="M22.7945 21.9674C22.7369 21.6158 21.1817 13.0538 21.0965 12.6074C21.4505 12.6074 21.5525 12.6266 21.6545 12.5462C21.7565 12.4658 21.8009 12.1106 21.7229 11.939C21.7114 11.905 21.6882 11.8762 21.6574 11.8577C21.6266 11.8392 21.5903 11.8323 21.5549 11.8382C21.4001 11.8478 21.2441 11.8382 21.0869 11.8382C21.0869 11.6678 21.0425 12.0926 21.5285 9.04698C21.5326 9.02062 21.5308 8.99367 21.5231 8.96811C21.5154 8.94256 21.5021 8.91907 21.4841 8.89938C21.3773 8.83338 21.2825 8.73498 21.1421 8.73378H20.5073C20.4869 8.56818 20.4269 8.40738 20.4581 8.26818C20.5065 8.06512 20.5011 7.85293 20.4425 7.65258C20.4393 7.6216 20.4484 7.59062 20.4677 7.56618C20.5817 7.4264 20.684 7.2775 20.7737 7.12098C20.9141 6.82218 20.9333 6.52098 20.6741 6.25578C20.5133 6.09258 20.3561 5.92458 20.1941 5.76258C20.1277 5.70544 20.0772 5.63209 20.0475 5.54966C20.0179 5.46723 20.0101 5.37853 20.0249 5.29218C20.0429 5.21828 20.0459 5.14149 20.0335 5.06642C20.0211 4.99136 19.9937 4.91957 19.9529 4.85538C19.8651 4.72138 19.7668 4.59458 19.6589 4.47618C19.4238 4.25232 19.2289 3.98969 19.0829 3.69978C18.8717 3.24138 18.6641 2.59458 17.9105 2.34378C17.1905 2.10378 16.6565 2.16138 16.4237 2.13378C16.2432 2.10024 16.0609 2.0778 15.8777 2.06658C11.9489 2.06658 3.74206 2.09418 3.56806 2.10378C3.37486 2.11458 3.36646 2.12538 3.37006 2.31138C3.37846 2.87178 3.43126 5.20818 3.43126 5.40618C3.37726 5.39178 3.33886 5.38338 3.30046 5.37018C3.19006 5.33418 3.08206 5.29218 2.97046 5.25858C2.90781 5.23916 2.84026 5.24289 2.78013 5.26911C2.71999 5.29532 2.67128 5.34226 2.64286 5.40138C2.54566 5.56818 2.54566 5.56818 2.35846 5.52138C2.25274 5.49858 2.14298 5.50271 2.03926 5.53338C1.89555 5.59731 1.75983 5.67786 1.63486 5.77338C1.57028 5.82665 1.52756 5.90183 1.51486 5.98458C1.48126 6.24858 1.46566 6.51498 1.44526 6.78018C1.42846 7.00578 1.40566 7.23138 1.40086 7.45698C1.39023 7.53376 1.40686 7.61184 1.44786 7.67762C1.48887 7.7434 1.55164 7.79272 1.62526 7.81698C1.77646 7.84698 1.92646 7.87578 2.07766 7.90098C2.14966 7.91178 2.17726 7.94058 2.18086 8.02098C2.19286 8.32578 2.21206 8.63018 2.23846 8.93418C2.23846 8.98458 2.28886 9.06498 2.32846 9.07338C2.38726 9.08538 2.46166 9.09498 2.46166 9.09498C2.46166 9.09498 2.48086 9.38178 2.48686 9.42978C2.35366 9.43938 2.34646 9.44658 2.34526 9.58338C2.34526 9.67578 2.34526 9.76818 2.34526 9.86058C2.34526 10.0898 2.34526 10.0898 2.57206 10.1114C2.57806 10.1114 2.58286 10.1114 2.59366 10.1234V10.5782C2.47894 10.5855 2.36475 10.5996 2.25166 10.6202C2.22851 10.6302 2.20782 10.6452 2.19104 10.6641C2.17425 10.6829 2.16177 10.7052 2.15446 10.7294C2.1459 10.7886 2.14109 10.8483 2.14006 10.9082C0.674862 18.0578 0.0508622 21.0854 0.00286219 21.3362C-0.0247378 21.491 0.155262 21.5354 0.199662 21.3734C0.199662 21.359 2.20126 11.5622 2.31526 10.9994C2.36326 10.7594 2.36086 10.7594 2.57566 10.7834C2.59006 10.7834 2.12686 21.383 2.15926 21.4742C2.20366 21.5942 2.30086 21.5726 2.33806 21.4958C2.36566 21.4382 2.33806 22.0622 2.77126 10.7822L3.06406 10.8002C3.08566 10.991 3.77206 16.1474 3.89806 17.117C3.92966 17.2629 3.93454 17.4133 3.91246 17.561C3.79246 18.041 3.00646 20.681 2.75806 21.5282C2.71726 21.6686 2.75806 21.7394 2.89126 21.7574C3.02446 21.7754 3.19006 21.7958 3.34006 21.8066C3.53206 21.821 3.57046 21.7958 3.62686 21.6074C3.79846 21.0398 4.18966 19.727 4.21606 19.6382C4.31566 20.2574 4.39846 20.873 4.48366 21.4874C4.49446 21.5678 4.48366 21.6734 4.60366 21.6794C4.67566 21.6794 4.70446 21.6086 4.68646 21.4694C4.37806 19.139 4.36126 19.151 4.40446 19.0046C4.90126 17.2946 6.13486 13.1246 6.24766 12.7394C6.36766 12.7214 6.32686 12.8318 6.33406 12.8906C6.47566 13.9334 7.48966 21.2822 7.53406 21.5846C7.54486 21.659 7.56646 21.7046 7.65406 21.7226C7.83304 21.7492 8.01525 21.7451 8.19286 21.7106C8.33926 21.6818 8.39206 21.6182 8.36806 21.4706C8.20006 20.3966 7.28806 14.5814 6.99766 12.731L14.5901 12.6758C14.5719 12.71 14.5559 12.7452 14.5421 12.7814C14.5289 12.8281 14.5039 12.8705 14.4694 12.9046C14.4349 12.9387 14.3921 12.9632 14.3453 12.9758C14.0573 13.085 13.7753 13.2158 13.4885 13.3238C13.3931 13.3592 13.3075 13.4167 13.2386 13.4915C13.1698 13.5664 13.1197 13.6566 13.0925 13.7546C13.0655 13.8247 13.0431 13.8964 13.0253 13.9694C12.8789 14.7446 12.7265 15.5174 12.5945 16.295C12.5393 16.625 12.5369 16.9646 12.4949 17.297C12.4457 17.6918 12.3833 18.0842 12.3209 18.4766C12.2405 18.9902 12.2009 19.5098 12.0425 20.0114C11.962 20.2108 11.9547 20.4323 12.0221 20.6366C11.9381 20.6954 11.8601 20.7566 11.7425 20.6858C11.7139 20.6747 11.6834 20.6698 11.6528 20.6712C11.6222 20.6727 11.5922 20.6805 11.5649 20.6942C11.3249 20.8022 11.0921 20.9114 10.8677 21.041C10.7941 21.0771 10.7285 21.1275 10.6747 21.1893C10.6209 21.2512 10.58 21.3231 10.5545 21.401C10.549 21.4661 10.5593 21.5315 10.5845 21.5918C10.5941 21.6314 10.6265 21.6662 10.6349 21.7118C10.6685 21.8546 10.7045 21.905 10.8197 21.9074C11.2337 21.9206 12.5333 21.935 12.7673 21.935C12.7481 22.109 12.8177 22.205 13.0073 22.2434C13.0608 22.2549 13.1157 22.2594 13.1705 22.2566C14.7953 22.1702 14.4665 22.1582 15.2693 22.1006C15.3701 22.0934 15.4889 22.013 15.5741 22.1474C15.5825 22.1606 15.6257 22.1558 15.6533 22.1558H16.2185C16.4417 22.1558 16.4453 22.1558 16.5077 21.9374C17.0029 20.2334 17.4981 18.5294 17.9933 16.8254C18.0413 16.661 18.0413 16.661 18.2177 16.691C18.2093 16.763 18.1949 16.8326 18.1913 16.9046C18.1649 17.411 18.0521 20.1998 18.0197 21.0878C18.0187 21.1206 18.0078 21.1524 17.9885 21.179C17.8541 21.347 17.7125 21.5102 17.5793 21.6794C17.5481 21.7178 17.5121 21.7934 17.5277 21.8186C17.5461 21.8394 17.5686 21.8561 17.5938 21.8679C17.619 21.8797 17.6463 21.8862 17.6741 21.887C18.1229 21.8966 18.5729 21.9014 19.0217 21.9038C19.1633 21.9038 19.2161 21.8018 19.1417 21.6794C19.0421 21.5234 18.9425 21.3674 18.8309 21.2186C18.7844 21.1602 18.7614 21.0866 18.7661 21.0122C18.7853 20.4686 18.8753 16.715 18.8861 16.6202C19.2545 16.5482 19.6061 16.4822 19.9601 16.4114C20.1087 16.3799 20.2423 16.2991 20.3393 16.1822C20.6057 15.8738 20.6465 15.5078 20.7665 14.9414C20.8145 15.2174 21.6341 19.9538 22.0013 22.0694C22.0433 22.3094 22.0445 22.3094 22.2905 22.3178C22.4177 22.3178 22.5437 22.3358 22.6709 22.3322C22.7129 22.3322 22.7825 22.2926 22.7909 22.2626C22.8101 22.1652 22.8113 22.0652 22.7945 21.9674ZM21.5417 12.0158C21.5525 12.119 21.5621 12.2042 21.5681 12.2894C21.5741 12.3746 21.5465 12.4214 21.4409 12.4214C20.2925 12.4286 17.8121 12.449 17.7149 12.449V12.0746L21.5417 12.0158ZM19.6913 13.3082C19.7176 13.467 19.7344 13.6273 19.7417 13.7882C19.7417 14.1758 19.7237 14.5622 19.6985 14.9474C19.6998 15.0391 19.6711 15.1288 19.6168 15.2027C19.5624 15.2766 19.4853 15.3306 19.3973 15.3566C19.0373 15.4766 18.6917 15.6086 18.3389 15.7358L18.3149 15.713L19.0349 13.2374C19.2509 13.2674 19.4573 13.3898 19.6913 13.3082ZM19.0649 13.1222C19.1069 12.9794 19.1477 12.8318 19.1957 12.6854C19.203 12.6718 19.2134 12.6601 19.2262 12.6513C19.2389 12.6426 19.2535 12.637 19.2689 12.635C19.3889 12.635 19.5221 12.635 19.6481 12.635C19.6608 12.6356 19.6732 12.639 19.6844 12.645C19.6956 12.6511 19.7053 12.6595 19.7129 12.6698C19.7609 12.7562 19.8005 12.8474 19.8473 12.935C19.8845 13.0034 19.8617 13.0466 19.8041 13.0886C19.7358 13.1433 19.6552 13.1806 19.5692 13.1971C19.4833 13.2136 19.3946 13.2089 19.3109 13.1834C19.2329 13.1582 19.1525 13.1426 19.0649 13.1222ZM18.3257 15.8654C18.7373 15.731 19.1525 15.6014 19.5641 15.4646C19.6458 15.4308 19.717 15.3756 19.7702 15.3049C19.8234 15.2342 19.8566 15.1505 19.8665 15.0626C19.9056 14.889 19.9293 14.7123 19.9373 14.5346C19.9694 14.1202 19.9435 13.7034 19.8605 13.2962C19.8582 13.2813 19.8594 13.2661 19.864 13.2517C19.8686 13.2374 19.8764 13.2242 19.8869 13.2134C20.0777 13.0538 20.0873 13.0154 19.9721 12.7922C19.9469 12.7406 19.9133 12.6938 19.8689 12.6218C20.0333 12.6218 20.1797 12.6218 20.3249 12.6218C20.3477 12.6218 20.3849 12.665 20.3897 12.6926C20.5793 13.8098 20.5169 13.523 20.4809 13.8086C20.3609 14.7074 20.3513 15.1286 20.1689 15.5186C20.0979 15.6687 19.9882 15.7971 19.8511 15.8908C19.714 15.9844 19.5545 16.0398 19.3889 16.0514C19.0181 16.0958 18.6449 16.1174 18.2729 16.1486C18.2537 16.1486 18.2333 16.1486 18.1913 16.1426C18.2165 16.0586 18.2333 15.9854 18.2597 15.9158C18.275 15.8917 18.2984 15.8738 18.3257 15.8654ZM9.77686 11.6294C9.44806 11.6294 9.11926 11.6294 8.79046 11.6426C8.72086 11.6426 8.68246 11.627 8.66326 11.5586C8.64406 11.4902 7.86166 8.76138 7.80286 8.50338C9.49846 8.50338 9.67006 8.51778 10.0829 8.48418C10.3729 8.46517 10.6628 8.52356 10.9229 8.65338C10.9721 8.67618 11.0237 8.69418 11.0429 8.70258L11.9729 11.9594C11.7233 11.9594 10.4705 11.9594 10.0829 11.9714C10.0061 11.9714 9.96286 11.9522 9.96286 11.8718C9.95805 11.8311 9.94961 11.791 9.93766 11.7518C9.93201 11.7145 9.91206 11.6809 9.88205 11.658C9.85204 11.6352 9.81431 11.6249 9.77686 11.6294ZM9.80926 11.9762L7.19206 12.0074V11.8118L9.67846 11.8034C9.82126 11.8022 9.82366 11.8046 9.80926 11.9762ZM4.17766 7.56138H4.07926L4.12486 6.31818L4.24486 6.23898L4.17766 7.56138ZM4.15846 7.68978C4.19265 7.71861 4.23421 7.73731 4.27846 7.74378C4.42486 7.74378 4.57246 7.73298 4.72006 7.72938C4.79206 7.72938 4.81606 7.68978 4.81726 7.62618V7.32138C4.94566 7.31418 4.66846 7.31178 6.82246 7.32138C6.98686 7.32138 7.00006 7.31298 7.00006 7.14978V3.66978C7.00006 3.53538 7.00006 3.53298 6.85966 3.53298C6.09766 3.53298 5.33686 3.53298 4.57966 3.53298C4.48966 3.53298 4.45966 3.55698 4.45966 3.64698C4.45606 4.43298 4.44286 6.06498 4.44286 6.12138C4.31086 6.12138 4.34686 6.08898 4.12006 6.25338C4.10086 5.14338 4.08286 4.06938 4.06486 2.98698L14.0969 2.91738C14.0333 3.23778 14.0549 3.19338 13.9625 3.37818C13.8425 3.60378 13.7453 3.83658 13.7933 4.09818C13.8185 4.23233 13.8712 4.3598 13.9481 4.47258C14.0207 4.56833 14.0657 4.68216 14.0782 4.80169C14.0907 4.92122 14.0701 5.04189 14.0189 5.15058C13.8905 5.46018 13.7669 5.77218 13.6409 6.08298C13.5209 6.36498 13.5737 6.51258 13.7465 6.71298C13.7756 6.73906 13.7988 6.77108 13.8146 6.80689C13.8303 6.8427 13.8382 6.88147 13.8377 6.92058C13.8113 7.31658 13.9445 7.52058 14.3177 7.68258L14.4101 7.72578L14.3609 7.82178C14.0717 7.82178 12.4901 7.79538 11.9789 7.79658C11.8973 7.79658 11.8661 7.77618 11.8589 7.68978C11.8433 7.49658 11.8121 7.30458 11.7845 7.08978C12.0077 7.25778 12.2237 7.41378 12.4325 7.57938C12.5621 7.68258 12.6941 7.72578 12.8321 7.56018C12.9257 7.44738 13.0337 7.34658 13.1309 7.23618C13.1646 7.20311 13.185 7.15875 13.1881 7.11159C13.1912 7.06443 13.1768 7.01779 13.1477 6.98058C13.1237 6.94458 13.1093 6.91578 13.1477 6.87618C13.1645 6.85938 13.1585 6.81738 13.1585 6.78738C13.1393 5.90658 13.0973 3.70698 13.0925 3.48858C13.0925 3.40938 13.0001 3.42498 12.9905 3.42498C7.23046 3.38058 7.58326 3.38178 7.54726 3.38658C7.53351 3.3856 7.51972 3.38767 7.50686 3.39264C7.494 3.39761 7.4824 3.40536 7.47289 3.41534C7.46337 3.42531 7.45618 3.43726 7.45182 3.45034C7.44745 3.46342 7.44604 3.47729 7.44766 3.49098C7.44766 3.98418 7.38166 6.67578 7.39486 6.73098C7.40806 6.78618 7.37326 6.82938 7.31326 6.82458C7.27028 6.81569 7.22552 6.82303 7.18763 6.84519C7.14973 6.86735 7.12139 6.90276 7.10806 6.94458C7.08817 6.98627 7.0844 7.03385 7.09747 7.07815C7.11054 7.12245 7.13953 7.16036 7.17886 7.18458C7.19267 7.19466 7.20279 7.20899 7.20766 7.22538C7.26166 7.41618 7.31446 7.60698 7.37086 7.80978L4.06126 7.84218C4.06126 7.80858 4.06126 7.76898 4.06846 7.72938C4.08286 7.65738 4.10806 7.65498 4.15846 7.69338V7.68978ZM6.91846 7.11618C6.91846 7.21098 6.89206 7.23618 6.79846 7.23618C5.76286 7.23618 4.96726 7.25058 4.83766 7.23618C4.83766 6.52458 4.83766 6.52578 4.82446 6.23898C4.82446 6.15978 4.77646 6.11898 4.69726 6.12618C4.63966 6.12618 4.57726 6.11898 4.51966 6.11418C4.53166 5.27658 4.54366 4.44538 4.55566 3.62058H6.92806C6.92806 3.76218 6.92206 6.07818 6.92206 7.11978L6.91846 7.11618ZM4.71646 6.24138C4.70566 6.69258 4.69726 7.13298 4.68286 7.57458C4.67899 7.59185 4.67078 7.60784 4.65903 7.62106C4.64727 7.63429 4.63235 7.64431 4.61566 7.65018C4.50406 7.65858 4.39126 7.65018 4.26766 7.65018C4.28206 7.17018 4.29526 6.69018 4.30966 6.21018L4.71646 6.24138ZM17.5637 4.90938C17.5582 4.9206 17.5505 4.9306 17.5411 4.93881C17.5317 4.94702 17.5208 4.95326 17.5089 4.95718C17.4971 4.96109 17.4845 4.96259 17.4721 4.9616C17.4597 4.9606 17.4475 4.95713 17.4365 4.95138C17.2498 4.88254 17.0791 4.77638 16.9349 4.63938C16.8773 4.58898 16.7657 4.56258 16.7969 4.60578C16.9793 4.82027 17.2184 4.97912 17.4869 5.06418C17.4449 5.46138 17.3501 5.86218 17.5445 6.27138C17.4473 6.33378 17.3453 6.40698 17.2361 6.46578C16.8191 6.68926 16.3618 6.82755 15.8909 6.87258C15.778 6.87858 15.6654 6.85631 15.5633 6.80778C15.2074 6.66522 14.8817 6.45677 14.6033 6.19338C14.5389 6.13589 14.4884 6.06456 14.4556 5.98475C14.4227 5.90494 14.4084 5.81872 14.4137 5.73258C14.4725 5.09298 14.6441 4.70898 14.4893 4.35978C15.2477 3.45018 15.1313 3.61338 15.3197 3.26418C15.3425 3.22338 15.3089 3.13218 15.2417 3.23058C15.0941 3.44418 14.9609 3.66858 14.8001 3.87138C14.694 3.9987 14.5798 4.11896 14.4581 4.23138C14.4316 4.25684 14.4134 4.28972 14.4059 4.32569C14.3984 4.36166 14.4019 4.39906 14.4161 4.43298C14.4425 4.51837 14.4491 4.60867 14.4353 4.69698C14.4233 4.90578 14.2973 5.38218 14.2721 5.63538C14.2349 5.99538 14.4221 6.25698 14.7005 6.46098C15.4145 6.98418 15.5993 6.91338 15.9245 6.97818C15.9557 6.98418 15.9977 7.14018 15.9713 7.15338C15.7313 7.27338 15.7313 7.27338 15.7685 7.53858C15.77 7.55133 15.77 7.56423 15.7685 7.57698L14.6669 7.56138C14.6538 7.55832 14.6403 7.55832 14.6273 7.56138C14.4989 7.63338 14.3873 7.56978 14.2805 7.51218C14.148 7.45087 14.0428 7.34274 13.9853 7.20858C13.9603 7.12741 13.9546 7.04156 13.9685 6.95778C13.9805 6.89526 13.9757 6.83066 13.9546 6.77058C13.9336 6.7105 13.8969 6.65708 13.8485 6.61578C13.7795 6.55914 13.7324 6.48031 13.7151 6.39277C13.6978 6.30522 13.7114 6.21439 13.7537 6.13578C14.0069 5.48658 14.1377 5.20218 14.1797 4.87698C14.1814 4.77855 14.1673 4.68048 14.1377 4.58658C14.1276 4.54324 14.1088 4.5024 14.0825 4.46658C13.8785 4.16178 13.9373 3.85338 14.0297 3.52218C14.1365 3.13818 14.4365 2.98458 14.7497 2.86578C15.1527 2.69335 15.5959 2.6367 16.0294 2.7022C16.4629 2.7677 16.8695 2.95276 17.2037 3.23658C17.4838 3.46279 17.6751 3.78069 17.7437 4.13418C17.7737 4.27098 17.8049 4.40778 17.8265 4.54578C17.8361 4.63458 17.6741 4.75578 17.5637 4.91058V4.90938ZM18.1517 4.64658C18.8129 4.75098 19.0781 5.51418 18.7217 6.06858C18.4889 6.42858 18.1001 6.46938 17.7617 6.26178C17.4497 6.06738 17.5505 5.45778 17.6177 5.10018C17.6573 4.90218 17.9045 4.60818 18.1517 4.64778V4.64658ZM17.4725 6.72138L16.1117 7.11858C16.0985 7.05858 16.0877 7.01298 16.0757 6.95658C16.5503 6.88593 17.0066 6.72285 17.4185 6.47658C17.4365 6.55458 17.4509 6.62298 17.4725 6.72138ZM12.7325 8.35338C12.492 8.36532 12.2547 8.29413 12.0605 8.15178C11.9405 8.07498 11.9405 8.07738 11.9273 7.93578H14.3009C14.2246 8.08072 14.1276 8.21372 14.0129 8.33058C13.9846 8.351 13.9505 8.36154 13.9157 8.36058C13.5209 8.35578 13.1261 8.32818 12.7325 8.35098V8.35338ZM13.8965 8.53218C13.8622 8.55008 13.8253 8.56262 13.7873 8.56938C13.4861 8.58018 13.1873 8.59338 12.8825 8.59098C12.8051 8.57646 12.7306 8.54973 12.6617 8.51178L12.6725 8.49378H13.8893L13.8965 8.53218ZM10.6565 8.07138C10.5929 8.02938 10.4633 7.95138 10.1765 7.78818C10.0841 7.73418 10.1657 7.74378 10.2449 7.74258C10.3241 7.74138 10.3937 7.74258 10.4681 7.74258C10.5425 7.74258 10.6289 7.77738 10.7081 7.78578C10.8389 7.79898 10.8281 7.70298 10.7717 7.65738C10.6445 7.54698 10.5113 7.44498 10.3853 7.33458C10.1453 7.12818 10.0805 7.00938 10.3577 7.15698C10.7177 7.34658 10.8485 7.42458 10.9109 7.45578C11.0309 7.51818 11.0597 7.43778 11.0141 7.35618C10.9889 7.31058 10.9253 7.21938 10.7741 6.97698C10.7033 6.86658 10.7189 6.81618 10.8161 6.90738C10.9133 6.99858 11.1617 7.23498 11.3345 7.42218C11.3753 7.46538 11.3693 7.56018 11.4341 7.92738C11.4372 7.93868 11.4427 7.94921 11.4501 7.95829C11.4576 7.96738 11.4668 7.97483 11.4773 7.98018C11.4873 7.98437 11.4981 7.98653 11.5091 7.98653C11.52 7.98653 11.5308 7.98437 11.5409 7.98018C11.5481 7.98018 11.5517 7.94418 11.5409 7.92858C11.4826 7.78952 11.4656 7.63666 11.4917 7.48818C11.5109 7.34418 11.5229 7.19898 11.5361 7.04778C11.5375 7.03047 11.5453 7.0143 11.5579 7.00235C11.5705 6.9904 11.5871 6.98351 11.6045 6.98298C11.6217 6.98249 11.6386 6.98831 11.6518 6.99936C11.6651 7.01041 11.6738 7.02592 11.6765 7.04298C11.7197 7.32978 11.7653 7.61658 11.8289 7.89978C11.8589 8.03298 11.8697 8.13258 11.7533 8.23698C11.6508 8.33735 11.561 8.44977 11.4857 8.57178C11.4705 8.59893 11.4466 8.62006 11.4177 8.63163C11.3889 8.64321 11.357 8.64453 11.3273 8.63538C11.0213 8.54178 10.7165 8.43978 10.4117 8.34138C10.3193 8.31018 10.3925 8.30298 10.4237 8.29578C10.5797 8.26218 10.6301 8.25138 10.6637 8.24178C10.7753 8.20458 10.7777 8.14698 10.6553 8.06898L10.6565 8.07138ZM11.7881 5.89098L12.0449 6.15858L11.6525 6.58578L11.3789 6.27738L11.7881 5.89098ZM11.2757 6.15858L11.0609 5.93058L11.4353 5.52138L11.6945 5.77578L11.2757 6.15858ZM11.8889 6.87858C11.9437 6.79115 12.016 6.71598 12.1013 6.65778C12.1649 6.61938 12.2513 6.65778 12.1817 6.76938C12.1377 6.84685 12.0706 6.90856 11.9897 6.94578C11.9165 6.98178 11.8361 6.94698 11.8829 6.87258L11.8889 6.87858ZM12.1829 7.11858C12.2381 7.03105 12.3108 6.95588 12.3965 6.89778C12.4589 6.85938 12.5465 6.89778 12.4757 7.00938C12.4322 7.08677 12.3654 7.14849 12.2849 7.18578C12.2105 7.21698 12.1301 7.18218 12.1817 7.10778L12.1829 7.11858ZM12.4769 7.35858C12.5324 7.27133 12.6051 7.19622 12.6905 7.13778C12.7529 7.09938 12.8405 7.13778 12.7697 7.24938C12.7258 7.32677 12.6592 7.38877 12.5789 7.42698C12.5045 7.45218 12.4253 7.41858 12.4757 7.34298L12.4769 7.35858ZM12.3773 6.12138C12.3207 6.08687 12.2579 6.06364 12.1925 6.05298C12.0929 6.02058 12.2069 6.12018 11.8553 5.78178C11.8997 5.74818 11.9297 5.72298 11.9621 5.70138C11.9763 5.69479 11.9887 5.68486 11.9983 5.67243C12.0078 5.66 12.0142 5.64544 12.0169 5.62999C12.0197 5.61455 12.0186 5.59868 12.0138 5.58374C12.0091 5.5688 12.0008 5.55522 11.9897 5.54418C11.5249 4.92338 11.0589 4.30418 10.5917 3.68658C10.5728 3.6638 10.5489 3.64575 10.5218 3.63388C10.4947 3.622 10.4652 3.61663 10.4357 3.61818C10.3853 3.63138 10.3457 3.69858 10.3073 3.74658C10.2689 3.79458 10.2749 3.82218 10.2485 3.84978C7.30126 6.87858 7.51726 6.65418 7.48126 6.67818C7.50046 5.60538 7.51846 4.54458 7.53766 3.47778L12.9977 3.51978C13.0193 4.63698 13.0397 5.73378 13.0613 6.85098C12.8479 6.5945 12.6195 6.35087 12.3773 6.12138ZM10.2833 4.10538C10.3673 4.02138 10.4681 3.95298 10.5701 3.86538C10.6901 4.01418 10.4657 3.70458 11.7545 5.52138C11.7869 5.56698 11.8289 5.61138 11.7545 5.64138L11.5517 5.44818C11.54 5.43086 11.5243 5.41666 11.5059 5.40684C11.4875 5.39703 11.4669 5.39189 11.4461 5.39189C11.4252 5.39189 11.4046 5.39703 11.3862 5.40684C11.3678 5.41666 11.3521 5.43086 11.3405 5.44818C11.3045 5.48898 11.2649 5.52738 11.2205 5.56818C11.1757 5.53132 11.1284 5.49764 11.0789 5.46738C11.0573 5.45538 11.0237 5.46738 10.9961 5.46738C10.9961 5.49858 10.9961 5.53818 11.0093 5.55978C11.046 5.59672 11.0862 5.63007 11.1293 5.65938C11.0729 5.72058 11.0165 5.77938 10.9589 5.84418C10.9474 5.85328 10.9381 5.86486 10.9317 5.87806C10.9253 5.89126 10.922 5.90572 10.922 5.92038C10.922 5.93504 10.9253 5.94951 10.9317 5.9627C10.9381 5.9759 10.9474 5.98748 10.9589 5.99658C11.1653 6.21018 11.3705 6.42618 11.5589 6.62418C11.5349 6.70578 11.5169 6.76818 11.4929 6.84858C11.3645 6.84858 11.2145 6.84858 11.0657 6.84858C11.0278 6.85428 10.9891 6.85131 10.9525 6.83987C10.9159 6.82844 10.8824 6.80885 10.8545 6.78258C10.8403 6.76592 10.8225 6.75271 10.8024 6.74395C10.7824 6.7352 10.7606 6.73113 10.7387 6.73205C10.7169 6.73298 10.6955 6.73887 10.6762 6.74929C10.657 6.75971 10.6404 6.77438 10.6277 6.79218C10.6114 6.81316 10.5898 6.82936 10.565 6.83907C10.5403 6.84879 10.5135 6.85166 10.4873 6.84738L7.54966 6.85458C7.67566 6.72858 10.1561 4.23378 10.2833 4.10538ZM11.4389 6.96138C11.4221 7.09218 11.4065 7.21338 11.3885 7.36338L11.0189 6.96138H11.4389ZM11.8949 8.29938C11.9059 8.29073 11.9189 8.2849 11.9327 8.28239C11.9465 8.27989 11.9607 8.28077 11.9741 8.28498C12.1601 8.38938 12.3437 8.49858 12.5549 8.62218H11.5817C11.6969 8.49618 11.7929 8.39298 11.8949 8.29338V8.29938ZM4.09726 7.92138H7.19086C7.40446 7.92138 7.40446 7.92138 7.46086 8.12298C7.48126 8.19858 7.50166 8.27418 7.52566 8.36298L3.62806 8.40138V8.16138C3.77446 8.07978 3.97006 8.10018 4.09726 7.92138ZM7.45726 7.30938C7.39846 7.17258 7.47286 7.05498 7.47526 6.93018C7.5297 6.93892 7.58459 6.94453 7.63966 6.94698C8.59366 6.94698 9.54766 6.94698 10.5005 6.94698C10.5403 6.94173 10.5808 6.94954 10.6158 6.96922C10.6509 6.98891 10.6786 7.01942 10.6949 7.05618C10.7311 7.11836 10.7632 7.18291 10.7909 7.24938C10.4477 7.08018 10.4057 7.04898 10.2869 7.00938C10.2561 6.99915 10.2235 6.99557 10.1912 6.99888C10.1589 7.00219 10.1277 7.01232 10.0997 7.02858C10.0361 7.08018 10.0817 7.16178 10.1261 7.20978C10.2353 7.32978 10.3541 7.44378 10.4717 7.55898C10.4982 7.58258 10.5267 7.60385 10.5569 7.62258C10.4369 7.62258 10.3169 7.62258 10.1969 7.62258C10.1718 7.61907 10.1462 7.62072 10.1218 7.62743C10.0973 7.63414 10.0745 7.64578 10.0548 7.66162C10.035 7.67747 10.0187 7.69718 10.0068 7.71957C9.99489 7.74195 9.98771 7.76652 9.98566 7.79178C9.62566 7.79178 8.10046 7.80138 7.70566 7.80978C7.62646 7.80978 7.58566 7.78818 7.57126 7.70898C7.54481 7.57288 7.50585 7.43951 7.45486 7.31058L7.45726 7.30938ZM10.0397 7.89738C10.2138 7.91027 10.3805 7.97319 10.5197 8.07858C10.6397 8.14698 10.6109 8.14698 10.5197 8.16258C10.4871 8.16875 10.4543 8.17315 10.4213 8.17578C10.2941 8.18658 10.2785 8.19978 10.2593 8.33418C10.1009 8.35218 9.55246 8.34138 7.87006 8.36298C7.78006 8.36298 7.74286 8.33538 7.72486 8.25018C7.70326 8.14458 7.66846 8.04138 7.63486 7.91658C7.70566 7.92138 9.29446 7.91298 10.0373 7.89858L10.0397 7.89738ZM11.2601 8.80458C11.3249 8.80458 14.1473 8.74818 15.5093 8.71578C15.5261 8.71289 15.5433 8.7134 15.5599 8.7173C15.5765 8.7212 15.5922 8.72841 15.606 8.73848C15.6197 8.74856 15.6313 8.7613 15.6401 8.77596C15.6488 8.79061 15.6545 8.80688 15.6569 8.82378C16.3421 10.9478 16.5893 11.6774 16.6457 11.8826L12.1469 11.945C11.8493 10.8962 11.5553 9.85698 11.2577 8.80578L11.2601 8.80458ZM16.5569 11.111C16.7585 11.0534 16.9493 10.991 17.1437 10.9466C17.4521 10.8758 17.7653 10.8266 18.0749 10.7534C18.3417 10.7039 18.6159 10.7104 18.8801 10.7726C18.9067 10.7761 18.9338 10.7761 18.9605 10.7726C18.9546 10.7412 18.9424 10.7114 18.9245 10.685C18.8045 10.5818 18.6581 10.5914 18.5177 10.565C18.4749 10.5619 18.432 10.5619 18.3893 10.565C18.4481 10.205 18.5093 9.85218 18.5597 9.50058C18.6065 9.18018 18.7481 8.87898 18.7937 8.55858C18.8117 8.43858 18.7721 8.43858 18.7265 8.51178L18.6281 8.66418C18.5621 8.62578 18.5081 8.48418 18.4445 8.42418C18.2657 8.27778 18.5429 8.73618 18.5477 8.74458C18.5694 8.78055 18.5775 8.82314 18.5705 8.86458C18.3917 9.40938 18.3509 9.97818 18.2921 10.5554L16.5269 11.0198C16.4069 10.6598 15.7937 8.82498 15.7373 8.67018C15.7241 8.62226 15.6939 8.58077 15.6524 8.5534C15.6109 8.52603 15.5609 8.51465 15.5117 8.52138C15.2321 8.53218 14.3117 8.55978 14.0309 8.55978C14.1065 8.43978 14.1281 8.30898 14.2589 8.24178C14.3052 8.20639 14.3423 8.16027 14.3669 8.10738C14.4185 8.0314 14.4635 7.9511 14.5013 7.86738C14.524 7.81377 14.564 7.76923 14.6148 7.74078C14.6656 7.71232 14.7245 7.70156 14.7821 7.71018C15.1421 7.71018 15.4949 7.71018 15.8513 7.71018C15.9137 7.71018 15.9389 7.67658 15.9341 7.61898C15.9311 7.54744 15.9215 7.47633 15.9053 7.40658C15.8837 7.33098 15.8969 7.29738 15.9773 7.27578C17.2013 6.95298 17.3729 6.88218 17.7113 6.77418C17.8313 7.02378 17.6405 7.08378 17.4617 7.22058C17.3993 7.26858 17.3813 7.35498 17.4893 7.29018L17.6897 7.17018L17.7077 7.18218L17.4941 7.52298C17.4902 7.52974 17.4888 7.53761 17.4902 7.54527C17.4915 7.55293 17.4954 7.55989 17.5013 7.56498C17.507 7.57021 17.5145 7.57311 17.5223 7.57311C17.53 7.57311 17.5375 7.57021 17.5433 7.56498C17.6532 7.40513 17.7499 7.23657 17.8325 7.06098C17.8803 7.07594 17.9269 7.0948 17.9717 7.11738C18.0424 7.15596 18.1208 7.17853 18.2013 7.18351C18.2817 7.18848 18.3623 7.17574 18.4373 7.14618C19.2233 6.93018 19.1873 6.92898 19.5461 6.89178C20.0261 6.84258 20.1857 7.47618 20.3297 7.93578C20.3375 8.0102 20.3347 8.08537 20.3213 8.15898C20.3016 8.27565 20.3045 8.39499 20.3297 8.51058C20.4197 8.72058 20.3873 8.92578 20.3669 9.13578C20.3552 9.21352 20.3388 9.29046 20.3177 9.36618C20.2874 9.46783 20.2681 9.57243 20.2601 9.67818C20.2578 9.92467 20.2202 10.1696 20.1485 10.4054C20.0561 10.7522 19.9793 11.1038 19.8857 11.4506C19.8493 11.5526 19.8043 11.6514 19.7513 11.7458C19.7369 11.7758 19.7237 11.807 19.7033 11.8526H18.1817C18.1817 11.8526 18.1745 11.8526 18.1745 11.8418C18.1553 11.6174 18.1361 11.6018 17.9129 11.6018C17.5433 11.6018 17.1725 11.609 16.8029 11.6162C16.7906 11.6186 16.778 11.6185 16.7658 11.6159C16.7536 11.6133 16.7421 11.6083 16.7319 11.6011C16.7217 11.5939 16.713 11.5848 16.7064 11.5741C16.6999 11.5635 16.6955 11.5517 16.6937 11.5394C16.6541 11.4014 16.6049 11.267 16.5545 11.1122L16.5569 11.111ZM18.0185 11.7302C18.0257 11.7866 18.0665 11.861 17.9609 11.8622C17.5745 11.8622 17.1881 11.8622 16.7921 11.8622C16.7849 11.8238 16.7777 11.7806 16.7693 11.729L18.0185 11.7302ZM21.4097 9.12138C21.2609 10.0014 21.1153 10.8782 20.9729 11.7518C20.9597 11.8286 20.9285 11.8634 20.8409 11.831C20.9969 10.871 21.1529 9.91098 21.3089 8.95098C21.4229 8.96898 21.4253 9.02658 21.4097 9.12138ZM20.5229 8.91258H21.1625C21.0041 9.90018 20.8493 10.865 20.6945 11.8346H19.8233C20.0393 11.6222 20.0777 11.3414 20.1365 11.069C20.2061 10.745 20.2841 10.421 20.3429 10.0946C20.3777 9.90738 20.3729 9.71298 20.4017 9.52458C20.4365 9.31338 20.4869 9.10458 20.5229 8.91258ZM17.9777 2.51178C18.5525 2.71578 18.7577 3.35178 18.9545 3.77058C19.1102 4.09231 19.3242 4.3824 19.5857 4.62618C19.64 4.68178 19.6913 4.74026 19.7393 4.80138C19.7933 4.86777 19.8325 4.94495 19.8542 5.02774C19.8759 5.11053 19.8797 5.19702 19.8653 5.28138C19.8484 5.40237 19.8622 5.52565 19.9054 5.63992C19.9486 5.75419 20.0198 5.85578 20.1125 5.93538C20.2589 6.07458 20.3849 6.23418 20.5313 6.37458C20.7125 6.54858 20.7197 6.75498 20.6585 6.97458C20.5986 7.15814 20.5014 7.3273 20.3729 7.47138C20.3549 7.43178 20.3417 7.40538 20.3321 7.37898C20.2568 7.18282 20.1329 7.00898 19.9721 6.87378C19.896 6.81079 19.806 6.76701 19.7095 6.74612C19.613 6.72524 19.5129 6.72786 19.4177 6.75378C19.1033 6.82218 18.7901 6.89778 18.4853 6.99378C18.2729 7.06218 18.0749 7.10058 17.8721 6.97218C17.8721 6.88938 17.8721 6.79458 17.8721 6.69978C17.8721 6.60498 17.8145 6.57018 17.7269 6.60138C17.6705 6.62178 17.6153 6.64818 17.5589 6.67338C17.5337 6.58938 17.5121 6.51498 17.4881 6.43338L17.6081 6.32658C17.6964 6.40335 17.8001 6.46032 17.9123 6.49364C18.0245 6.52697 18.1425 6.53588 18.2585 6.51978C18.4079 6.50035 18.5486 6.43831 18.6637 6.34106C18.7788 6.24381 18.8635 6.11547 18.9077 5.97138C19.0589 5.55978 19.0277 5.09298 18.6677 4.77138C18.5467 4.66777 18.4667 4.52436 18.4421 4.36698C18.0869 2.76138 16.7657 2.40138 16.5077 2.24418C17.007 2.27051 17.501 2.36043 17.9777 2.51178ZM16.8185 2.50098C17.2896 2.74519 17.6875 3.10999 17.9717 3.55818C18.1502 3.86514 18.2722 4.20169 18.3317 4.55178L17.9609 4.52418C17.9273 4.36458 17.8925 4.19418 17.8553 4.02378C17.7532 3.58819 17.4883 3.20818 17.1149 2.96178C16.7371 2.70134 16.293 2.55398 15.8345 2.53698C15.2999 2.49938 14.7683 2.64358 14.3261 2.94618C14.2594 2.98666 14.1984 3.0359 14.1449 3.09258C14.0777 3.03858 14.6693 2.39418 15.4337 2.27778C15.9072 2.19399 16.3952 2.27264 16.8185 2.50098ZM15.0833 2.26098C14.7865 2.38277 14.5113 2.55175 14.2685 2.76138C14.2506 2.77504 14.2286 2.78223 14.2061 2.78178L4.21366 2.84418C3.97366 2.84418 3.96766 2.85498 3.97366 3.08418C3.98566 3.99618 4.01206 5.89578 4.01206 5.94258C3.92086 5.91498 3.83686 5.89338 3.75646 5.86218C3.67606 5.83098 3.73726 5.45898 3.53686 5.43258C3.53686 4.95258 3.49846 2.63178 3.49846 2.25738L15.0833 2.26098ZM3.63286 5.91738C3.63286 5.94618 3.57886 5.97978 3.53086 6.03738C3.50086 5.62818 3.50086 5.62818 3.58726 5.59578C3.6082 5.70209 3.62343 5.80944 3.63286 5.91738ZM2.88886 5.29218C3.09286 5.36178 3.34246 5.43618 3.54526 5.50578C3.54526 5.51658 3.48166 5.56098 3.45646 5.56578C3.25246 5.50098 2.97646 5.40978 2.77246 5.34498C2.8042 5.31477 2.84522 5.29616 2.88886 5.29218ZM2.72806 5.41218L3.41086 5.61858V6.04698L2.54206 5.79618L2.72806 5.41218ZM2.51206 5.67258C2.51206 5.67258 2.45446 5.76018 2.44966 5.78418C2.43526 5.85018 2.47006 5.85498 2.59606 5.88858C2.85526 5.95938 3.11206 6.04218 3.36886 6.12138C3.56566 6.18258 3.71566 5.96538 3.71566 5.96538C3.71566 5.96538 3.87286 6.02178 3.89686 6.02898C3.84162 6.10403 3.78107 6.17501 3.71566 6.24138C3.69468 6.25421 3.67125 6.26255 3.64688 6.26585C3.6225 6.26916 3.59771 6.26736 3.57406 6.26058C3.12766 6.14058 2.68246 6.00378 2.23726 5.87298C2.10286 5.83338 1.97086 5.78778 1.83526 5.74338C1.92931 5.66792 2.04286 5.62075 2.16269 5.60736C2.28252 5.59398 2.40369 5.61493 2.51206 5.66778V5.67258ZM1.84486 7.74138C1.78126 7.72818 1.71886 7.71018 1.65646 7.69218C1.62055 7.68549 1.58808 7.6665 1.56465 7.63846C1.54122 7.61043 1.52828 7.57512 1.52806 7.53858C1.51992 7.05356 1.53795 6.56846 1.58206 6.08538C1.59166 5.89338 1.69246 5.80458 1.87726 5.85858C2.22046 5.95818 2.56006 6.07338 2.90326 6.17658C3.13486 6.24618 3.37006 6.30498 3.60286 6.36858C3.63952 6.37799 3.67815 6.37628 3.71383 6.36367C3.74952 6.35106 3.78065 6.32813 3.80326 6.29778C3.86326 6.23298 3.93046 6.17778 3.99526 6.11658L4.02166 6.13218C4.01086 6.39498 3.96286 7.54338 3.95446 7.85538C3.95725 7.87868 3.95095 7.90216 3.93687 7.92094C3.92279 7.93971 3.90201 7.95233 3.87886 7.95618C3.75886 7.99458 3.63886 8.04258 3.50686 8.07618C3.41926 8.09178 3.42406 8.08578 1.84486 7.74138ZM2.41966 8.97498C2.40356 8.97026 2.38893 8.96149 2.37717 8.94952C2.3654 8.93755 2.3569 8.92277 2.35246 8.90658C2.33326 8.59218 2.32006 8.27778 2.30446 7.94658L2.92486 8.09178C2.92486 8.35218 2.92486 8.60898 2.92486 8.86578C2.92486 8.98578 2.88646 9.00858 2.76886 9.00378C2.65126 8.99898 2.53366 8.99058 2.41966 8.97498ZM2.71246 9.42378L2.59246 9.43098C2.58166 9.32778 2.57086 9.22818 2.56006 9.12978C2.73406 9.07938 2.71246 9.12138 2.71246 9.42378ZM2.46166 9.95418V9.54858H2.86246V9.95418H2.46166ZM3.25846 10.835C3.20206 10.5638 3.17206 10.595 2.97166 10.5866L2.76286 10.5746V10.109C2.76286 10.109 2.77246 10.1006 2.77846 10.1006C2.96446 10.1006 2.97166 10.1006 2.98726 9.91458C2.99848 9.77862 2.99526 9.64186 2.97766 9.50658C2.97166 9.46098 2.97766 9.39618 2.82286 9.40458C2.81326 9.32058 2.80486 9.23658 2.79526 9.14418C3.03526 9.10578 3.05566 8.93898 3.04966 8.75178C3.02926 8.15178 3.03766 8.24298 3.04966 8.12898L3.52966 8.22138C3.51046 8.49138 3.48286 8.52138 3.66166 8.52138H7.40806C7.60246 8.52138 7.56166 8.49978 7.61206 8.67378C8.57206 11.9906 8.33206 11.2454 8.48326 11.657C8.43526 11.657 7.56886 11.6786 7.17406 11.687C7.03246 11.687 7.03366 11.687 7.05406 11.8322C7.0583 11.8917 7.0583 11.9515 7.05406 12.011C6.93406 12.0218 7.27606 12.017 4.61206 12.053C4.44166 12.053 4.43086 12.0686 4.44526 12.2354C4.45366 12.3338 4.45966 12.4334 4.46326 12.533C4.46326 12.6938 4.53646 12.7634 4.69606 12.7646C4.89766 12.7646 5.10046 12.7646 5.32486 12.7646C4.91566 14.1626 4.51126 15.5486 4.10566 16.9346C4.09846 16.9214 3.34966 11.2634 3.25846 10.835ZM3.43726 21.635L2.94286 21.5678C3.29166 20.363 3.64166 19.1574 3.99286 17.951C3.99286 17.951 4.11286 18.725 4.16206 19.1114C4.16926 19.1702 4.20286 19.0154 3.43726 21.6338V21.635ZM4.32886 18.6014L4.16326 17.4854C4.16326 17.4854 4.25806 17.0546 4.31926 16.8434C4.69006 15.5438 5.06926 14.2454 5.44366 12.947C5.50006 12.7526 5.49646 12.7514 5.70766 12.7478C5.81686 12.7478 5.92486 12.7478 6.04966 12.7478C5.47366 14.7086 4.90126 16.655 4.32886 18.6014ZM8.18086 21.5318H7.80286C7.74406 21.5318 7.72126 21.5054 7.71286 21.4466C7.64206 20.9198 6.56206 13.4294 6.46966 12.8378C6.46721 12.8054 6.46721 12.7729 6.46966 12.7406H6.82246C7.27366 15.659 7.72486 18.5786 8.18086 21.5318ZM4.68286 12.5846V12.2246L17.5469 12.0674C17.5469 12.1706 17.5469 12.2594 17.5469 12.3482C17.5469 12.437 17.5241 12.4526 17.4425 12.4538C17.0105 12.4586 4.84606 12.5846 4.68286 12.5846ZM12.1649 20.2646C12.2093 19.9646 12.3053 19.673 12.3569 19.373C12.5513 18.2414 12.6977 16.8602 12.8549 15.875C12.9533 15.263 13.0865 14.657 13.2041 14.0486C13.2113 14.0078 13.2281 13.9694 13.2377 13.9286C13.2601 13.8176 13.3117 13.7146 13.3872 13.6302C13.4627 13.5458 13.5594 13.4831 13.6673 13.4486C13.9397 13.3406 14.2025 13.2086 14.4653 13.0718C14.7015 12.9746 14.9504 12.9115 15.2045 12.8846C15.6665 12.8006 15.9641 12.8846 17.7965 13.103C17.8763 13.1098 17.9566 13.1098 18.0365 13.103C18.1433 13.103 18.0905 13.0034 18.0365 12.9986C17.8553 12.983 17.6765 12.9842 17.4929 12.9626C17.2661 12.935 17.0417 12.8846 16.8149 12.8558C16.5473 12.821 16.2773 12.8006 16.0085 12.7682C15.3797 12.6914 15.0821 12.7862 14.6885 12.8762C14.6899 12.8612 14.6923 12.8464 14.6957 12.8318C14.7545 12.6734 14.7545 12.6746 14.9237 12.6734L18.3221 12.6482C18.2837 12.7682 16.2053 19.7282 15.8921 20.7986C15.8717 20.8658 15.8453 20.8934 15.7721 20.8862C15.4493 20.8526 15.1241 20.8286 14.8013 20.795C14.6141 20.7746 14.5685 20.7242 14.5793 20.5334C14.5901 20.3426 14.6237 20.1734 14.6369 19.9922C14.6561 19.733 14.8085 14.8034 14.8241 14.5058C14.8304 14.4211 14.8602 14.3398 14.9099 14.2709C14.9597 14.2021 15.0276 14.1484 15.1061 14.1158C15.5069 13.919 16.1033 13.6682 16.5125 13.4942C16.5125 13.4942 16.7225 13.481 16.8641 13.4942C17.0057 13.5074 17.1437 13.3898 17.0033 13.3274C16.9877 13.3274 17.0381 13.3274 16.1537 13.2746C15.9353 13.2614 16.0337 13.3754 16.0481 13.3814C16.1177 13.4174 16.1909 13.4438 16.2821 13.4822C16.2401 13.4954 16.2077 13.5038 16.1765 13.5158C15.8249 13.6562 15.4673 13.787 15.1217 13.9406C14.8013 14.081 14.6645 14.339 14.6561 14.6942C14.6429 15.3038 14.5985 15.9122 14.5721 16.5218C14.5637 16.7126 14.5469 18.227 14.5241 18.7922C14.5047 18.8958 14.4725 18.9966 14.4281 19.0922C14.2697 19.5902 14.1113 20.0882 13.9565 20.5874C13.9109 20.7362 13.8917 20.7506 13.7345 20.7506C13.2759 20.7285 12.8199 20.6683 12.3713 20.5706C12.1097 20.5214 12.1229 20.537 12.1601 20.261L12.1649 20.2646ZM14.5277 20.8646C14.3813 20.9402 14.2541 21.023 14.0873 20.9486C14.0234 20.9343 13.9583 20.9259 13.8929 20.9234C14.0885 20.8226 14.0825 20.6282 14.1329 20.4602C14.2529 20.057 14.3801 19.6574 14.5061 19.2602C14.5061 19.2482 14.5181 19.2374 14.5433 19.2302C14.5097 19.5974 14.4765 19.9654 14.4437 20.3342C14.4245 20.5118 14.3909 20.6942 14.5229 20.8658L14.5277 20.8646ZM14.5037 21.6482C14.5257 21.6942 14.5426 21.7425 14.5541 21.7922C14.1022 21.8896 13.6411 21.9371 13.1789 21.9338C13.0301 21.9338 12.9809 21.839 13.0589 21.7166C13.0969 21.6514 13.1461 21.5933 13.2041 21.545C13.4033 21.401 13.6073 21.2642 13.8137 21.1286C13.858 21.1026 13.9069 21.0851 13.9577 21.077C14.0007 21.0607 14.0483 21.0609 14.0912 21.0775C14.1342 21.0941 14.1695 21.126 14.1905 21.167C14.2829 21.3338 14.4029 21.4874 14.4989 21.6494L14.5037 21.6482ZM12.4109 20.7242C12.8109 20.8187 13.2193 20.8733 13.6301 20.8874C13.7621 20.8874 13.7645 20.8958 13.7921 20.963C13.5617 21.1286 13.3397 21.3002 13.1045 21.4502C13.0192 21.4828 12.928 21.4967 12.8369 21.491C12.6833 21.503 12.5297 21.5114 12.3749 21.5222C12.2717 21.2822 12.1829 21.0242 11.9933 20.8262C12.1037 20.6954 12.2501 20.6966 12.4061 20.7254L12.4109 20.7242ZM10.6829 21.4742C10.7057 21.4226 10.7153 21.3542 10.7549 21.3242C11.0008 21.117 11.2778 20.9497 11.5757 20.8286C11.6322 20.8036 11.6952 20.7972 11.7556 20.8104C11.816 20.8235 11.8706 20.8555 11.9117 20.9018C12.0617 21.0698 12.1241 21.2798 12.2093 21.5078C10.6277 21.5594 10.8737 21.5606 10.6829 21.4742ZM12.6977 21.7874C12.1181 21.7874 11.5397 21.7874 10.9601 21.7958C10.8629 21.7958 10.7537 21.8234 10.7429 21.6962L12.9689 21.6098C12.9329 21.7466 12.8321 21.7874 12.6917 21.7874H12.6977ZM15.4577 21.9458C14.1185 22.0778 14.0321 22.0898 13.0937 22.1126C12.9533 22.1126 12.8885 22.0502 12.9017 21.9218C13.0217 22.0646 13.1693 22.0598 13.3193 22.049C13.4393 22.0406 13.5653 22.049 13.6877 22.0394C14.8481 21.9266 15.0533 21.8774 15.5873 21.7994C15.5909 21.9002 15.5681 21.935 15.4565 21.9458H15.4577ZM15.5933 21.629C15.2849 21.6854 14.9765 21.7382 14.6753 21.791C14.6071 21.5417 14.4795 21.3128 14.3033 21.1238C14.6885 20.8934 14.5937 20.9318 14.7509 20.945C15.9101 21.0386 15.7733 21.0278 15.8213 21.041C15.7685 21.2222 15.7181 21.401 15.6617 21.581C15.6542 21.5935 15.6442 21.6043 15.6321 21.6126C15.6201 21.6209 15.6064 21.6265 15.5921 21.629H15.5933ZM16.3697 21.917C16.3613 21.947 16.3217 21.9878 16.2953 21.989C16.1069 21.995 15.9197 21.989 15.7169 21.989C16.6313 18.875 17.5661 15.7742 18.4769 12.6434H19.0241C19.0157 12.6746 16.3709 21.9086 16.3685 21.917H16.3697ZM20.6669 14.6726C20.6045 14.9594 20.5697 15.2522 20.4953 15.5366C20.4427 15.7018 20.3697 15.8598 20.2781 16.007C20.2394 16.071 20.1871 16.1257 20.1248 16.1672C20.0626 16.2086 19.992 16.2359 19.9181 16.247C18.4649 16.5062 18.5021 16.487 18.1685 16.5338C18.1457 16.5338 18.1217 16.5338 18.0881 16.5338L18.1517 16.3034C18.6087 16.3114 19.0655 16.2732 19.5149 16.1894C20.0321 16.0946 20.3189 15.7502 20.4257 15.2606C20.5181 14.8394 20.5541 14.3798 20.6057 14.0894C20.6429 14.2814 20.7101 14.4698 20.6657 14.6726H20.6669ZM22.2389 22.097C22.2161 22.097 22.1885 22.0394 22.1813 22.0058C22.1813 21.9962 20.5565 12.7514 20.5457 12.6194H20.9345C21.4985 15.7818 22.0629 18.9482 22.6277 22.1186C22.4873 22.1126 22.3613 22.1114 22.2377 22.097H22.2389Z" fill="#471280"/>
<path d="M18.9269 8.32698C19.0097 8.04618 19.3277 7.59978 19.4945 7.36698C19.5629 7.26978 19.6313 7.17138 19.7069 7.07898C19.712 7.0723 19.7195 7.06791 19.7278 7.06679C19.7362 7.06566 19.7446 7.06789 19.7513 7.07298C19.758 7.07807 19.7623 7.08561 19.7635 7.09394C19.7646 7.10227 19.7624 7.1107 19.7573 7.11738C19.4717 7.51218 19.1765 7.89378 18.9797 8.34018C18.9413 8.42418 18.9017 8.41458 18.9269 8.32698Z" fill="#471280"/>
<path d="M15.5057 8.88138C15.5284 8.92016 15.5488 8.96022 15.5669 9.00138C15.8685 9.88138 16.1673 10.7614 16.4633 11.6414C16.4741 11.6714 16.4549 11.7134 16.4489 11.7494C16.4213 11.723 16.3781 11.7002 16.3673 11.6678C16.0793 10.8078 15.7933 9.94618 15.5093 9.08298C15.4912 9.01896 15.4764 8.95408 15.4649 8.88858L15.5057 8.88138Z" fill="#471280"/>
<path d="M16.9049 4.49418C16.3541 4.43178 15.8957 4.25418 15.5849 3.79578C15.5021 3.67578 15.4133 3.55578 15.3305 3.43578C15.2717 3.34698 15.3617 3.34218 15.3989 3.38658C15.5381 3.55458 15.6773 3.72378 15.8129 3.89658C16.1165 4.28178 16.6085 4.30578 16.9205 4.37658C17.0585 4.41618 16.9985 4.50498 16.9049 4.49418Z" fill="#471280"/>
<path d="M16.0397 5.84418C16.0204 5.97405 15.9677 6.09668 15.8867 6.19999C15.8057 6.3033 15.6992 6.38374 15.5777 6.43338C15.5267 6.44255 15.4744 6.44063 15.4243 6.42776C15.3742 6.41488 15.3275 6.39136 15.2873 6.35879C15.2471 6.32622 15.2143 6.28537 15.1914 6.23901C15.1684 6.19266 15.1556 6.1419 15.1541 6.09018C15.1583 6.06069 15.169 6.03249 15.1854 6.00761C15.2018 5.98272 15.2234 5.96174 15.2489 5.94618C15.4529 5.85898 15.6605 5.77898 15.8717 5.70618C15.9965 5.67018 16.0409 5.71218 16.0397 5.84418ZM15.9617 5.77818C15.7217 5.86098 15.5249 5.92818 15.3257 6.00618C15.3067 6.01816 15.291 6.03459 15.2799 6.05405C15.2689 6.07351 15.2627 6.09539 15.2621 6.11778C15.2669 6.15578 15.2803 6.1922 15.3012 6.22433C15.322 6.25647 15.3499 6.2835 15.3826 6.30344C15.4153 6.32337 15.4521 6.33569 15.4902 6.33949C15.5283 6.34329 15.5668 6.33847 15.6029 6.32538C15.7528 6.2469 15.8674 6.11435 15.9233 5.95458C15.9428 5.89738 15.956 5.83823 15.9629 5.77818H15.9617Z" fill="#471280"/>
<path d="M15.2909 5.25018C15.2408 5.32278 15.1806 5.38783 15.1121 5.44338C15.1059 5.44952 15.1017 5.45744 15.1002 5.46604C15.0987 5.47464 15.0999 5.4835 15.1037 5.49138C15.1071 5.49924 15.1128 5.50587 15.1201 5.51038C15.1274 5.51488 15.1359 5.51705 15.1445 5.51658C15.2825 5.50578 15.3401 5.50098 15.3713 5.50218C15.5177 5.50218 15.4061 5.58378 15.3797 5.58738C15.2778 5.60118 15.1752 5.6084 15.0725 5.60898C14.9885 5.60898 14.9273 5.52978 14.9717 5.47458C15.0538 5.37905 15.1407 5.28773 15.2321 5.20098C15.3101 5.12298 15.3341 5.16738 15.2909 5.25018Z" fill="#471280"/>
<path d="M16.432 4.85778C16.3984 4.93458 16.294 4.94298 16.2808 4.84338C16.2676 4.77239 16.2676 4.69957 16.2808 4.62858C16.2868 4.60218 16.36 4.43778 16.4488 4.63578C16.4592 4.71013 16.4534 4.78583 16.432 4.85778Z" fill="#471280"/>
<path d="M14.8337 4.87218C14.8296 4.88754 14.8206 4.90112 14.808 4.91081C14.7954 4.92049 14.7799 4.92575 14.7641 4.92575C14.7482 4.92575 14.7327 4.92049 14.7201 4.91081C14.7076 4.90112 14.6985 4.88754 14.6945 4.87218C14.6904 4.78087 14.6936 4.68939 14.7041 4.59858C14.7084 4.58616 14.7165 4.57539 14.7273 4.56778C14.738 4.56017 14.7509 4.55608 14.7641 4.55608C14.7772 4.55608 14.7901 4.56017 14.8008 4.56778C14.8116 4.57539 14.8197 4.58616 14.8241 4.59858C14.8533 4.687 14.8566 4.78193 14.8337 4.87218Z" fill="#471280"/>
<path d="M3.15288 7.80138C3.14568 7.90578 3.07608 7.90218 3.00528 7.88538C2.78208 7.83378 1.90728 7.61298 1.69248 7.55898C1.62408 7.54218 1.61928 7.49538 1.62288 7.43898C1.63728 7.21698 1.69488 6.43218 1.70448 6.26178C1.71408 6.09138 1.72728 6.08178 1.88208 6.12498C2.29008 6.23778 2.69688 6.35298 3.10608 6.46098C3.20448 6.48738 3.24768 6.52818 3.22608 6.63138C3.22008 6.67218 3.22968 6.59178 3.15288 7.80138ZM1.80288 6.20658L1.74888 7.44738L3.05208 7.78098L3.13848 6.59178C2.78208 6.48138 3.16008 6.59298 1.80288 6.20658Z" fill="#471280"/>
<path d="M3.64247 6.60138C3.64247 6.77778 3.57646 7.73178 3.56206 7.90098C3.56206 7.98738 3.47806 7.98978 3.47566 7.92138C3.46846 7.70178 3.55727 6.66738 3.57167 6.58818C3.60287 6.44418 3.64007 6.45378 3.64247 6.60138Z" fill="#471280"/>
<path d="M18.3437 6.14898C18.7421 5.90898 18.7577 5.33418 18.5033 5.00778C18.4678 4.96117 18.4215 4.92391 18.3684 4.89923C18.3153 4.87455 18.257 4.86321 18.1985 4.86618C18.0785 4.86618 18.1469 4.78818 18.1985 4.78578C18.2774 4.78252 18.3559 4.79929 18.4266 4.83454C18.4973 4.86979 18.558 4.92237 18.6029 4.98738C18.7162 5.15181 18.7713 5.34937 18.7596 5.54872C18.7479 5.74807 18.6699 5.93779 18.5381 6.08778C18.4968 6.13762 18.4458 6.17847 18.3881 6.20778C18.3017 6.24738 18.2201 6.22338 18.3437 6.14898Z" fill="#471280"/>
<path d="M18.0101 4.92138C17.8638 5.21874 17.8111 5.55346 17.8589 5.88138C17.8616 5.95814 17.8906 6.03163 17.9411 6.08953C17.9915 6.14743 18.0604 6.18622 18.1361 6.19938C18.1841 6.20778 18.1961 6.30738 18.0749 6.27138C17.9936 6.24342 17.9216 6.19374 17.8666 6.12774C17.8116 6.06174 17.7757 5.98193 17.7629 5.89698C17.7189 5.68188 17.7313 5.45907 17.7989 5.25018C17.8339 5.13789 17.8764 5.02805 17.9261 4.92138C17.9501 4.86258 18.0725 4.80138 18.0101 4.92138Z" fill="#471280"/>
<path d="M2.08006 7.12818C2.25614 6.99585 2.44096 6.87558 2.63326 6.76818C2.82886 6.66378 2.69566 6.80658 2.68246 6.81618C2.51725 6.96474 2.33328 7.09101 2.13526 7.19178C2.12326 7.20138 1.91566 7.24698 2.08006 7.12818Z" fill="#471280"/>
<path d="M2.78927 7.10298L2.38967 7.36818C2.32967 7.40898 2.28527 7.37658 2.35367 7.31778C2.48514 7.22089 2.62174 7.13117 2.76287 7.04898C2.82287 7.00578 2.86127 7.05498 2.78927 7.10298Z" fill="#471280"/>
</svg>
